<?xml version="1.0" encoding="UTF-8"?>
<svg id="Layer_1" xmlns="http://www.w3.org/2000/svg" version="1.1" viewBox="0 0 792 206.5">
  <!-- Generator: Adobe Illustrator 30.1.0, SVG Export Plug-In . SVG Version: 2.1.1 Build 136)  -->
  <defs>
    <style>
      .st0 {
        fill: none;
        stroke: #2e368f;
        stroke-miterlimit: 10;
        stroke-width: 7px;
       stroke-dasharray:3000;
      stroke-dashoffset:3000;
	animation:animateZ 5s linear alternate infinite;
      }


@keyframes animateZ {
	to{  
		stroke-dashoffset:0;
	}	
}
    </style>
  </defs>
  <path class="st0" d="M9,141.2c8.8-6.8,21.1-14.1,36.8-18.4,39.6-10.8,64.5,20.5,104.2,22.9,33.7,2.1,68.6-13.8,88.7-37.4,25.9-30.4,33.4-78.5,22.4-74.8-27.3,9.3-50.8,140.3-45.4,142.4s22.7-47.7,39.4-57.3c16.7-9.6,24.1-.2,21.6,9.2s-18.1,44.6-14,48c7.7,5.8,25.8-.8,38.5-8.7,17.5-10.2,40.4-29.1,38.2-43-.7-4.4-3.9-8.8-8-10-8.8-2.6-19.9,10.2-24.9,19.4-5.5,10.2-7.7,34.3.6,42.2,12.4,11.9,44.3-14.1,46.3-15.3,17.6-10.6,22.8-19.6,49.4-67.3,9.8-17.6,23.4-47.2,20.1-63.4-1.5-7.3-6.4-7.5-10.8-5-11.6,7.5-25.9,37.8-41.4,90.7-3.3,11.2-8.5,30-1,48.9,1.8,4.5,5.2,12.8,12,14.5,8.5,2.1,17.6-7.3,25.9-16.5,29.4-32.5,34.5-36.6,48.3-60.6,10.8-18.7,16.5-39.5,20.1-54.2s-4.1-22.7-10.1-22.8c-7.9,0-14.3,12.1-19.9,25.9-17.1,42.3-32.9,117.5-14,124.9,10.7,4.2,29.5-14.4,32.4-17.3,0,0,8.1-8,13.4-18.9,1.6-3.3,2.8-6.6,2.8-6.6.9-2.4,2.8-8.7,2.3-8.9-1.1-.4-17.4,21.3-11.5,38.9.4,1.2,3.7,10.4,11.5,12.8,10.6,3.3,22.1-8.2,26.9-15.3,5.6-8.2,6.3-16.5,6.5-19.9.2-3.8.7-12.6-4.5-20.9-1.8-2.9-4-6.4-8.5-8-.6-.2-6.5-2.3-12,1-2.6,1.6-4,3.7-4.5,4.5-4.8,7.6-3,21.4,5.5,28.4,4.4,3.7,9.4,4.5,13,5,10.6,1.5,19.3-2.2,22.4-3.5,0,0,14-5.8,49.4-16,20.7-5.9,37.9-6,46.4-6s28.5,3,62.3,9c27.6,4.9,28.4,5.4,33.9,5.5,22.4.3,42.7-8.5,60.3-20.9"/>
</svg>