<?xml version="1.0" encoding="UTF-8"?>
<!-- Created with Inkscape (http://www.inkscape.org/) -->
<svg width="1200" height="900" version="1.1" viewBox="0 0 1200 900" xmlns="http://www.w3.org/2000/svg">
 <title>ISS from 2022 Calendar</title>
 <g>
  <g transform="matrix(8.6914 0 0 -8.6914 1098.7 465.72)">
   <path d="m0 0v-.226c.126.128.048-.001.113.226zm-.453 4.183v39.459c.128.097.018-.015.114.113.458-.023 1.809-.311 2.147 0 .298-.013.385-.044.566-.113v-39.459h5.653v35.05c0 1.543-.128 3.394.113 4.748h-4.409c-.459 0-1.324.116-1.583-.113-.267.027-.279.048-.452.113v.227h-1.018v-.113c-.121-.078-.372-.382-.678-.227v.113h-4.07c-.669 0-1.546.067-2.036-.113v-35.954c0-1.069-.19-2.899.113-3.731zm8.028-10.288h-5.541v-35.615c0-1.069.191-2.9-.112-3.732-.568.036-1.669.545-2.035 0-.324.006-.485.04-.679.114v39.233h-5.54v-39.685h5.879v.112h.679v-.338c.596-.029.996-.16 1.13.338h.566v-.112h5.879v.226c-.075.038-.151.075-.226.112zm-20.464 7.236v.113c-.226-.068-.098.015-.227-.113zm-.453-.113h.226v.113c-.225-.068-.097.015-.226-.113m-.339-.227c.226.068.098-.015.226.113h.113v.114c-.268-.073-.211-.032-.339-.227m-.226-.113h.226v.113c-.226-.068-.097.016-.226-.113m-1.47-3.505c.097-.127-.015-.017.113-.113v.226c-.226-.068-.097.016-.226-.113zm-3.166 46.582h.566v-.113c.716.038 1.432.076 2.148.113v-39.572h5.653v35.05c0 1.543-.128 3.394.113 4.748h-5.879v-.113h-.679v.34h-.904c-.038-.113-.076-.227-.113-.34h-.565v.113h-5.993v-39.798h5.653zm8.141-84.005v34.145h-5.653v-39.347c-.514.017-1.476.457-2.035.226-.038-.074-.076-.15-.113-.226h-.566v39.347h-3.731c-.638 0-1.46.056-1.922-.114v-35.84c0-1.069-.19-2.899.113-3.731h4.523c.285 0 1.578.114 1.583.112.037-.075.075-.15.113-.226h1.243c.068.226-.015.098.114.226v.114c.438-.19.947-.226 1.582-.226h4.862c-.151 1.649-.113 3.709-.113 5.54m-14.359 37.536h.226v.113c-.226-.068-.097.016-.226-.113m-.339-.226h.226v.113c-.226-.068-.097.016-.226-.113m-28.04 18.543h.113v.226c.075.037.151.075.227.113.074.226.15.452.226.678.075.038.15.076.226.113v.226h.112v.226h.114c.162.286.22.582.452.792v.339h-.114c-.037-.151-.074-.301-.112-.452-.076-.038-.151-.075-.226-.113-.076-.226-.151-.452-.226-.679-.076-.037-.151-.075-.226-.113-.076-.226-.152-.452-.226-.678-.076-.038-.152-.075-.227-.113v-.226h-.113c-.075-.226-.151-.452-.226-.679.275.18.073.091.226.34m.792 32.336c-.581.006-1.12.286-1.47-.113 2.374-.076 4.748-.151 7.122-.227-.31.297-1.191.226-1.808.227-1.281.037-2.564.075-3.844.113m-.34-29.962v.226h-.112c-.304-.632-.874-1.181-1.018-1.922.551.36.637 1.269 1.13 1.696m4.862 30.527h-1.47v-.113h-2.826v-.113c-.545-.149-1.449.207-1.809-.113 2.562.075 5.125.151 7.688.226-.259.229-1.125.113-1.583.113m-5.766-30.527v.226h-.113c-.127-.273-.274-.454-.34-.791.26.17.239.377.453.565m-.226-1.696h-.113c-.167-.354-.406-.566-.452-1.018.249.207.324.578.565.792zm-.227.904v.227h-.112c-.127-.273-.275-.454-.34-.792.26.17.239.377.452.565m-.678.227h-.113v-.227c.127.129.048-.001.113.227m.226-1.018v.226h-.113c-.095-.21-.174-.295-.226-.565.171.108.192.221.339.339m-.113 24.761c-.226-.068-.097.016-.226-.113h-.113v-.113h.339zm-.339-23.97v-.226c.127.129.048-.001.113.226zm-.113-.339h-.113v-.226c.127.129.048-.001.113.226m-.113-.226h-.113v-.226c.126.128.048-.001.113.226m.339-.565h-.113c-.127-.273-.274-.454-.339-.792.26.17.239.378.452.566zm-.565-1.809h.339v.113h-.339zm-4.183 2.374v-.226c.126.128.048-.001.113.226zm-.114-2.374h.227v.113c-.226-.068-.098.016-.227-.113m0 2.713h-.113v-.226c.127.129.049-.001.113.226m-.113.226h-.113v-.226c.127.129.049-.001.113.226m-.339 23.97v-.226h.339v.113c-.113.037-.226.075-.339.113m.113-23.743c-.096.127.015.017-.113.113v-.226c.076-.038.151-.076.226-.114.045.225-.059.144-.113.227m-.452-.34c-.097.128.015.018-.113.113v-.226c.462-.395.555-1.184 1.018-1.582v-.114h.113c-.09.4-.296.508-.453.792-.037.151-.075.301-.113.452-.075.038-.151.076-.226.113-.133.207.001.255-.226.452m-.226-24.308v.113c-.226-.068-.098.016-.226-.113zm-.565 25.439v-.113c.094.015.437-.692.565-.791v-.114h.113c-.102.447-.352.603-.452 1.018zm0-24.422c.21-.144.191-.112.226-.452.114.097.159.195.226.339-.37.231-.144.463-.452.113m.113-2.148c.131.004.181.249.226.339h.113v.114h-.113v.113h-.113v-.227c-.091-.107-.15-.074-.226-.226zm-1.018 26.57v-.113c.276-.179.073-.09.226-.339h.113v-.226c.076-.038.151-.076.226-.113.076-.226.151-.453.227-.679.075-.037.15-.075.226-.113v-.226h.113v-.226h.113c.162-.286.22-.582.452-.791v-.114h.113c-.075.227-.151.453-.226.679h-.113v.226c-.076.038-.151.075-.226.113-.038.151-.076.302-.113.452-.076.038-.151.076-.226.113-.038.151-.076.302-.113.453h-.114v.226c-.075.037-.15.075-.226.113v.226h-.113v.226h-.113v.226c-.075-.038-.151-.075-.226-.113m-1.018 0v-.113c.19-.156.443-.574.566-.791v-.227c.075-.037.151-.075.226-.113.333-.526.449-1.188.904-1.582v-.114h.114c-.076.227-.151.453-.227.679-.075.037-.15.075-.226.113-.075.226-.151.452-.226.678-.075.038-.151.076-.226.113-.038.151-.075.302-.113.453h-.113v.226c-.076.037-.151.075-.226.113v.226h-.113v.226h-.113v.226c-.076-.038-.151-.075-.227-.113m-2.713 29.623c-.708-.001-1.77.126-2.148-.227 1.017.038 2.035.076 3.052.114.4 0 1.026-.08 1.244.113h2.827v.113c-.533.096-.629.043-1.131 0-1.281-.038-2.563-.076-3.844-.113m3.279.452v.113h-2.827v.113h-1.47c-.454 0-1.328.117-1.582-.113 2.562-.075 5.125-.151 7.688-.226-.361.323-1.266-.042-1.809.113m-13.229-16.281c-.225-.068-.097.015-.226-.113h.226zm-23.63-35.502v-.113h-.113v-.113h.226c-.068.226.016.097-.113.226m-.791 2.374v.113h-.113c.037-.113.075-.226.113-.339h-.113v-.226h.226v.452zm-.226-.678c.126.128.048-.001.113.226h-.113zm-1.357 0h.113v-.113h-.113v-.113h.339c-.038.113-.075.226-.113.339 0 0-.44-.016-.226-.113m.113-.565h-.113v-.227c.127.129.048-.001.113.227m-.226-1.583c.226.068.097-.016.226.113h.113v.113c-.268-.073-.212-.032-.339-.226m.113 1.922h-.226v-.339h.226zm-.452-2.148c.225.068.097-.016.226.113h.113v.113c-.268-.073-.212-.032-.339-.226m-1.922 2.826c-.097.128.015.018-.113.113v-.226c.075-.038.15-.075.226-.113.044.225-.06.144-.113.226m-.113.339h-.114v-.226c.127.129.049-.001.114.226m-.114 38.555v-34.032h5.654v39.233h.678v-.113c.678.037 1.357.075 2.035.113v-39.233h5.653v35.841c0 1.069.19 2.899-.113 3.731h-5.653v-.113h-.565v.226h-1.47v-.226h-.678v.113h-5.654c.152-1.65.113-3.71.113-5.54m8.254-80.501c0-1.069.19-2.899-.113-3.731-.581.048-1.676.55-2.148 0-.297.013-.384.045-.566.113v39.459h-5.653v-36.067c0-1.069.19-2.899-.113-3.731.49-.18 1.367-.113 2.035-.113h3.845v.113h.791v-.339c.415.037.829.075 1.244.113v.226c1.903-.179 4.245-.121 6.331-.113v39.911h-5.653zm-10.176 40.816c.127.128.049-.001.113.226h-.113zm-.226-.339c.191.129.158.068.226.339h-.113c-.037-.113-.075-.226-.113-.339m-.113-.227c.127.129.048-.001.113.227h-.113zm-7.914 1.809c.126.129.048-.001.113.227h-.113zm-7.688 4.41h5.54v39.233h.791v-.113c.678.037 1.357.075 2.035.113v-39.233h5.54v39.572h-5.653v-.113h-.565v.226h-1.47v-.226h-.678v.113h-3.958c-.477 0-1.424.128-1.696-.113-.067-.145-.125.046-.113-.113l.227-.113zm121.88-5.427v-.113c.128-.097.018.015.114-.113h-.226c.067.225-.016.097.112.226m-1.809 2.148h-.339v.113h-.113v.113h.452zm-.791-2.6h-.792v.113h.792zm-1.244 2.713v-.113h-.113v.226h.678v-.113zm.113-2.94h-.226v.113h.226zm-.339 2.94c-.128-.097-.017.015-.113-.113-.323.006-.484.04-.678.113v.113h.791zm-5.427-.452c.068.226-.016.097.113.226-.068-.226.016-.097-.113-.226m-.113.113c-.21-.08-.443-.117-.792-.113v.226h.792zm-.339-2.035h-.453v.113h.453zm-1.47 1.583c-.226.068-.097-.016-.226.113h-.113v.452h.113c.093-.147.077-.135.226-.226zm-.339 1.47c.127.096.017-.016.113.113h.113v-.566h-.226zm-.226-1.131h-.226v.113h.226zm-2.035 0c-.226-.068-.098.016-.226-.113h-.114v.339h.34zm-.34-1.922v.565h.114c.037-.113.075-.226.112-.339-.114-.087-.111-.139-.226-.226m-.452 2.6h-.226c.08.21.117.443.113.792h.113zm-.339-2.939c-.428-.085-.706-.167-1.13 0v.113h1.13zm-3.731 0h-.565v.113h.565zm-1.583 0h-.678v.113h.678zm-.792 0h-.791v.113h.791zm-1.582 0h-.679v.113h.679zm-6.106 1.696h-.113v.452h.113zm-.791-.114c-.468.008-.579.046-.678-.339h-.905v.113c.527.254 1.062.838 1.696.905-.038-.226-.075-.452-.113-.679m-.678-.678h-1.583v.113c.426.081 1.004.121 1.583.113zm-.114-1.696h-1.243v.113c.458.094.76.29 1.131.452.096-.127-.016-.017.112-.113zm-1.695.226c.264.065.422.162.565.339h.339v-.113c-.301-.15-.603-.301-.904-.452zm1.583 2.827h.338v-.113c-.112-.038-.226-.076-.338-.113-.038-.076-.076-.151-.114-.226-.15-.038-.301-.076-.452-.113-.038-.076-.075-.151-.113-.227-.206-.132-.254.001-.452-.226-.267.027-.28.048-.452.113.333.511 1.179.471 1.583.905m-1.583.565h1.583v-.452c-.616-.143-.964-.556-1.583-.678zm-.566 6.784c-1.244.038-2.487.075-3.731.113v.226c1.244-.038 2.487-.075 3.731-.113zm-1.13-3.279h-2.714v.226h3.053v-.113h.791c-.204-.181-.751-.113-1.13-.113m0-3.392c-.844-.001-2.067-.138-2.714.113.191.17.658.113 1.017.113.968.002 1.886-.081 2.714-.113-.19-.17-.659-.112-1.017-.113m-2.827-3.731c.179.166.667.126 1.018.113-.18-.166-.667-.125-1.018-.113m.678-1.583v-.113c-.112.038-.226.076-.339.113v.113h.113v-.113zm-.791-.339v.339c.308-.086.257-.027.339-.339zm.113-1.131c-.326.082-.375.122-.452.453.188.037.377.075.565.113-.038-.189-.075-.377-.113-.566m-.565 2.036h-.679v.226c-.113-.076-.226-.151-.339-.226-.097.114-.194.159-.339.226-.097.127.015.017-.113.113v.113c.676-.019 1.148-.151 1.356 0h.679c-.097-.128.015-.018-.113-.113-.249-.34-.102-.212-.452-.113zm-1.583 0c.067.225-.016.097.113.226v-.113c.127-.097.017.015.113-.113zm-2.148 4.974h3.618v-.226h-3.618zm-.566-3.957c.252.226 1.961.125 2.488.113-.251-.226-1.961-.125-2.488-.113m-.226 7.123h-1.809v.226h1.809zm0-3.279c-.81-.3-2.68-.124-3.731-.113v.113h.565v.113h3.166zm-3.844 6.784c1.244.038 2.487.075 3.731.113v-.226c-1.244-.038-2.487-.075-3.731-.113zm-.113-8.48h-3.279v-.113h-.113c-.038.076-.076.151-.113.226-.151.038-.301.076-.452.113-.038.076-.075.151-.113.227h-.226v.113h-.227c-.037.075-.075.15-.113.226h-.226c-.037.075-.075.151-.113.226h-.226c-.076.113-.151.226-.226.339-.532.368-1.237.462-2.148.452v.453h-.453v-.113c-.112-.038-.226-.076-.339-.113v.226h-.113c-.111.101-.056.158-.226.226v-.113h-.113v.113h-.226v.113h-.679v.113c-.126.128-.048-.001-.112.226.112.038.226.075.339.113v.113h.339v.113c.075-.037.15-.075.226-.113.038.076.076.151.113.226.075-.037.151-.075.226-.113.099.259.12.5.113.905h.113c.184-.319-.129-.758.227-1.131.037-.113.074-.226.112-.339 1.446 0 3.071-.094 4.184.226.866-.075 1.733-.151 2.6-.226.059.548.228.824.227 1.47.411-.088.561-.224.904-.113.37-1.005-.011-3.185.113-4.071m-8.819-7.688c-.301.038-.603.075-.905.113v.339c.293.056.5.115.905.113zm8.706 26.118v.226h3.844c-.405-.406-2.96-.243-3.844-.226m3.731 3.391h-3.731v.226h3.731zm-3.844 3.392v.227h3.844v-.114c-.833-.308-2.767-.124-3.844-.113m.226-10.175v.226c1.058-.006 2.912-.189 3.731.113v-.226c-1.039-.191-2.51-.122-3.731-.113m3.844-3.166v-.113c-1.281-.038-2.563-.075-3.844-.113v.226c.878.015 2.02-.084 2.714.113.302.086.883.007 1.017-.113zm.791-6.671h3.844v-.226h-3.844zm0 3.279c.833.308 2.768.124 3.845.113v-.226h-3.845zm0 3.505h2.714c.36-.001.827.057 1.017-.113h.114v-.113h-3.845zm.114 3.392h2.6c.36-.001.827.057 1.017-.113h.114v-.113h-3.845c.038.075.076.151.114.226m1.017 3.279h2.714c-.205-.182-.752-.113-1.131-.113h-2.714c.205.181.752.112 1.131.113m-1.131 3.392h3.845v-.113c-.618-.231-3.229-.235-3.845 0zm0 3.392h3.845v-.114c-.833-.308-2.768-.124-3.845-.113zm4.749-13.455c.351.01.838.055 1.017-.113h2.714v-.113c-.288-.106-1.127-.24-1.583-.113v.113h-2.261c.038.075.076.151.113.226m0 3.279h3.731v-.226h-2.487c-.36 0-.827-.057-1.017.113h-.227zm0 3.392h3.844v-.226h-2.6c-.36 0-.827-.057-1.017.113h-.227zm.113 3.392h2.714c.359-.001.826.057 1.017-.113h.114v-.114h-3.845zm2.827 3.392h.904v-.114h.114v-.113c-1.085-.005-3.004-.197-3.845.113.268.245 2.255.115 2.827.114m-7.123-31.658c-.288.059-.521.152-.678.339h-.226v.113c.352-.073.504-.194.904-.226zm-13.341 1.583c.9-.005 1.371-.065 2.035-.113v.339h.112v.113h.34c.008-1.251-.372-.996-.792-1.696h-.339v.452h-.113v.113h-.339v.226l-.339.114v-.227c-.366.044-.33.103-.565.227zm11.871-8.367h.452v.113h.114v-1.244c-.189.038-.378.076-.566.114v.112c-.109.149-.014.498 0 .905m-14.02 24.874c.038.113.076.226.113.339h.113v-.791h-.113v.452zm-2.148-9.271h-.565v-.113c-.527-.155-.658.088-.792-.452-.246-.054-.32-.073-.452-.227h-.339v.113h-.113c-.07.142.191.083.226.227-.08.109-.168.055-.226.226.113.037.226.075.339.113.113.414.226.829.339 1.243h.339c-.068-.225.016-.097-.113-.226.284-.327.366-.078.792-.226v-.113c.188-.038.377-.075.565-.113-.038-.113-.075-.226-.113-.339zm-.113-10.176c-.381-.047-.467-.04-.905-.113v.678c.34-.075.679-.15 1.018-.226-.038-.113-.075-.226-.113-.339m-1.244 9.271h-.339v.113h.339zm-1.13.566c-.113-.038-.227-.076-.34-.113-.037.075-.075.15-.113.226h-.452v.113h.905zm-.113-.453h-.226v.113h.226zm-.34 0c-.225-.068-.097.016-.226-.113h-.113v.34h.339zm-.452-.113h-.339v.339h.339zm-.452 0h-.339v.339h.339zm-.565 0v.34h.113c.096-.198-.065-.284-.113-.34m-1.131 0v.34h.113c.096-.198-.065-.284-.113-.34m-.226 0c.068.226-.016.098.113.226-.068-.225.015-.097-.113-.226m0-.452c.068.226-.016.097.113.226-.068-.225.015-.097-.113-.226m-.339-1.244h-.226v.113h.226zm-.566 0c-.096-.127.015-.017-.113-.113-.037.113-.075.226-.113.339h.339c-.068-.225.016-.097-.113-.226m-.339 1.696h-.226v.226h.226zm0-.452h-.113c-.038.113-.075.226-.113.339h.226zm0-.452h-.226c.038.113.075.226.113.339h.113zm0-.452h-.113c-.038.113-.075.226-.113.339h.226zm0-.453h-.226c.038.113.075.226.113.339h.113zm5.54 4.297h.226c-.087-.328-.062-.025 0-.34h-.226zm-9.61-2.601c-.843-.001-2.067-.138-2.714.113.205.181.751.113 1.131.113.867-.037 1.734-.075 2.6-.113-.19-.17-.658-.112-1.017-.113m-2.714 3.618c.502.01 2.018.108 2.262-.113h1.582v-.113l-.113-.113c-.301.038-.603.075-.904.113h-2.827zm.113 3.392c1.244-.038 2.488-.075 3.731-.113v-.226c-1.243.038-2.487.075-3.731.113zm0 3.279c.528.159 2.858.004 3.845 0v-.226c-.528-.01-2.236-.115-2.488.113h-1.357zm.113 3.392h3.731v-.226h-3.731zm0 3.392h3.845v-.226h-2.714c-.36 0-.827-.057-1.018.113h-.113zm.113 3.392h2.714c.36-.001.827.057 1.018-.113h.113v-.114h-3.845zm0 3.392c1.282-.038 2.563-.076 3.845-.114-.205-.181-.752-.112-1.131-.113h-2.714zm-1.017-.227h-3.844v.226h3.844zm0-3.278c-.832-.309-2.768-.125-3.844-.114v.227h3.844zm0-3.392c-.617-.231-3.228-.235-3.844 0v.113h3.844zm0-3.392c-.617-.231-3.228-.235-3.844 0v.113h3.844zm0-3.392h-3.844c.037.075.075.151.113.226h2.6c.36-.001.827.057 1.018-.113h.113zm0-3.392h-3.844c.037.075.075.151.113.226h2.6c.36 0 .827.057 1.018-.113h.113zm0-3.392h-3.844v.226h3.844zm-.113-3.392h-3.618v.226h3.618zm-4.41 3.392h-2.713c-.442-.002-.81-.166-1.018 0h-.113v.113c1.282.038 2.563.076 3.844.113zm-.113-3.392h-3.278c.235.212.644.006 1.017.113.553.159 1.527.129 2.261.113zm0 7.01v-.226c-1.243-.038-2.487-.075-3.731-.113v.226c1.244.038 2.488.075 3.731.113m-3.844 3.053v.226h2.714c.433.001.872.104 1.017 0h.113v-.113c-1.281-.038-2.563-.075-3.844-.113m-.113 3.392c.038.075.076.15.113.226h3.731v-.113c-.832-.309-2.767-.124-3.844-.113m-.113 6.783v.114c.832.308 2.768.124 3.844.113v-.227zm0 3.505h.905c.739.214 2.009.131 2.939.114v-.227h-3.844zm3.957-6.67v-.113c-.832-.309-2.767-.125-3.844-.113.038.075.076.15.113.226zm-4.748-20.804h-.679c.038.075.076.151.113.226h.34v-.113h.226zm-.792.113c-.172-.066-.184-.09-.452-.113.038.075.075.151.113.226h.339zm-.452 3.844h.339v-.113h-.339zm-.565-1.696h-.227c-.037.302-.075.603-.113.905.308-.078.256-.153.566-.226-.155-.291-.209-.193-.226-.679m.226-2.261h-.566v.565h.453c.096-.127-.016-.017.113-.113zm-.566 3.505c.151-.038.302-.075.453-.113v-.226c-.113.038-.226.075-.34.113v.113h-.113zm-.452-1.357c-.344-.105-.104-.112-.452 0v.113h.452zm0-2.148h-.904c.013.297.044.384.113.565h.791zm-4.409.565h-.226v.34c.113.037.226.075.339.113-.038-.151-.076-.302-.113-.453m-1.131-.678h-.678v.226h.565v-.113h.113zm-1.583 0h-.678v.226h.452v-.113h.226zm-.791 0h-.678v.113h.678zm-1.244 2.714h-.452v.113h.452zm-3.731-2.714h-.905v.113h.905zm-1.131 2.94v1.13h-.113v.113c.218-.139.838-1.167.905-1.469h-.679c-.034.206-.113.226-.113.226m-.113 0h-.226c.009.376.063.511.113.791h.113zm-.565-1.357c-.075.038-.151.075-.226.113v-.565h-.113c-.125-.183-.159-.19-.226-.453h-.227c.03.321.047.413.227.566 0 0-.016.439-.113.226-.158-.027.046-.107-.114-.113v1.13h.227s-.006-.427.113-.226v.226h.226c.008-.061-.066-.468.113-.339.13.094-.047.12.113.113zm0-1.131h-.452c.096.128-.015.018.113.113.129.191.068.158.339.227zm-1.244 0c.086.52.125 1.07.113 1.922h.113v-.565h.113c.179-.572-.09-1.167-.339-1.357m-.226 1.244c.158.027-.047.107.113.113v-.678c-.075.037-.151.075-.226.113.105-.409.202-.242.226-.792-.113.038-.226.076-.339.113-.084-.045 0-.145-.226-.113v.113h-.113v-.113h-.339c.107.203.161.176.226.453h-.226c.025.479.105.458 0 .791.424.19.23-.065.452.565.188.038.377.076.565.113-.038-.337-.01-.31-.226-.452 0 0 .016-.44.113-.226m-.791-1.583h-.226v.113h.226zm-.339 2.148h-.226v.226h.226zm0-1.017h-.227v-.113c.076-.038.151-.076.227-.113v-.453h-.453v.679h.226c.117.109-.113.113-.113.113v.452h.34zm-.113-1.809h-.114v-.113h-.113v.565h.227zm-.34 2.826h.113c.093-.146.078-.134.227-.226v-.113h-.34zm.679.226h.565v-.113c-.188-.037-.377-.075-.565-.113zm-1.583-.904c-.076.038-.151.075-.226.113.095-.424.233-.633.226-1.244h-.905v2.035h.226s-.006-.427.113-.226v.226h.566zm-1.018-1.131c-.113.038-.226.076-.339.113v1.696c.147.093.135.078.226.226h.113zm-1.243.905c.157.027-.047.107.113.113v-1.018c-.35.001-.581.034-.792.113-.005.635-.058 1.465.113 1.922h.679c.006-.446.005-.707-.227-.904 0 0 .016-.44.114-.226m.113-1.244h-.226v.113h.226zm-.566 0h-.339v.113h.339zm-.678 1.131h-.113v1.017c.113.038.226.076.339.113.097-.127-.015-.017.113-.113.002-.406-.014-.642-.113-.904-.226-.068-.097.016-.226-.113m-7.688-1.018h-.226v.339c.341.158.613.361.791.679h.113c-.075-.576-.442-.621-.678-1.018m55.853 29.284v-.227h-.113c-.038.264-.076.528-.113.792h.452c-.03-.32-.047-.412-.226-.565m-.113.791h.226v-.113h-.226zm-1.922 4.523h-.113v-.227c-.113.076-.227.151-.34.227.076.15.151.301.227.452.075-.038.15-.076.226-.113zm-1.922 0v.339h.113c.096-.198-.065-.284-.113-.339m-1.809-.114v.453c.225-.068.097.015.226-.113.126-.129.048.001.113-.226l-.339-.114m-1.696.114v.339h.113c.096-.198-.065-.284-.113-.339m-1.47-.114h-.339v.114h-.113c.079.165.1.185.113.452h.339zm-1.922.114h-.226c.037.113.075.226.113.339h.113zm-1.809-.114c-.226.068-.098-.015-.226.114h-.114c.08.165.101.185.114.452h.226zm-2.035.114c.068.225-.016.097.113.226-.068-.226.015-.098-.113-.226m18.881.226c-.068-.226.016-.098-.113-.226.068.225-.016.097.113.226m1.696 0c.127-.097.018.015.113-.113-.113-.076-.226-.151-.339-.227-.069.181-.105.268-.113.566.268-.073.211-.032.339-.226m1.583 0c-.068-.226.016-.098-.114-.226.069.225-.015.097.114.226m1.696.226c.126-.129.048.001.113-.226.127-.129.048.001.113-.226h-.113c-.128-.127.001-.049-.226-.114-.067.173-.09.184-.113.453.226.068.097-.016.226.113m1.809-.226c-.068-.226.016-.098-.113-.226.068.225-.016.097.113.226m1.357.226c.337-.039.31-.011.452-.226.127-.097.018.015.113-.113-.146-.093-.135-.078-.226-.227h-.227v.453h-.112zm3.844 0h.226c.037-.113.075-.226.113-.339-.113-.076-.226-.151-.339-.227-.097.128.015.018-.113.114.027.266.048.279.113.452m43.19-28.718h-6.332v-.113c.855-.317 3.263-.113 4.41-.113.607 0 1.376-.05 1.809.113.211-.565.124-1.622.113-2.375h-.565c.02-.225-.007-.34.112-.452h.227c-.038-.075-.076-.151-.113-.226.15-.038.301-.075.452-.113-.127-.463-.051-.132-.339-.339-.086-.062-.069-.147-.227-.226v-.113c-.112.037-.226.075-.338.113.037.113.074.226.112.339h-.112c-.081.169-.084.187-.114.452h-.339v.226c-3.367.164-7.189.12-10.741.113-.075.452-.15.905-.226 1.357-.226-.127-.539-.345-.678-.565h-.226c.234-.194-.053-.346-.227-.453v-.113c.341.086.532.296.679.566h.226c-.097-.128.015-.018-.113-.113-.006-.324-.04-.484-.113-.679h-.792v.113h-.113v-.113h-.565c-.03.007-.036.147-.226.113v-.113h-.905c-.075.603-.15 1.206-.226 1.809h-.113c-.037-.113-.075-.226-.113-.339h-.113l.113-.113c-.038-.565-.075-1.131-.113-1.696h-.792c-.016.802.189 1.092.679 1.357v.226c-.233-.133-.435-.331-.565-.565h-.114v1.809h.679v-.113h5.653v.339c-5.149-.01-8.957.012-14.133 0 .069-.226-.015-.098.113-.226.26-.229 1.124-.113 1.583-.113 1.521 0 3.168.067 4.523.113-.015-.685-.152-2.452.226-2.714v-.113h-.905c-.038.075-.075.151-.113.226-.565-.038-1.131-.075-1.696-.113v.113h-.904c-.065-.026-.142-.38-.566-.226-.038.075-.075.151-.112.226h-1.018c-.97.001-2.923-.08-3.392.339-.308.087-.258.027-.339.34h-.339v.226c-.114-.038-.226-.076-.34-.113v-.113h-.113c.038-.113.075-.227.113-.34-.113-.037-.226-.075-.339-.113v.226c-.505.06-.508.203-.678.566.037.113.075.226.113.339h-.113c-.143.227-.375.386-.679.452v-.226h-.226c.038-.113.076-.226.113-.339-.075.038-.15.075-.226.113v-.452c-.546.005-1.206.028-1.582-.113v-.566h-1.923v-.226h-.113c.113 6.293.227 12.589.339 18.882 0 1.604-.01 3.439.114 4.861.041.471.114 1.548-.114 1.809v1.696c-.806-.299-3.115-.159-3.957 0v-1.583h-.113v-.339c-.051-1.125.149-2.571-.113-3.505-.113-7.423-.226-14.849-.339-22.273-.226.068-.098-.016-.226.113-.264.304-.113 1.402-.113 1.922v25.665c-1.098-.202-2.973-.204-4.07 0v-27.7c-.114-.038-.227-.075-.34-.113-.113 6.368-.226 12.739-.339 19.108-.038 1.695-.075 3.392-.113 5.087 0 .541.162 1.717-.113 2.035v1.583c-.679-.258-1.95-.114-2.827-.113-.358.001-.829-.058-1.017.113h-.113c.021-5.164-.012-10.898.226-16.168v-4.183c0-.46.114-1.322-.113-1.583-.264-.075-.528-.151-.791-.226-.076.452-.151.905-.227 1.357h-1.13v-.113h-.453v-.113c-.188-.033-.199.107-.226.113h-.565c-.076-.038-.151-.076-.226-.113v.113h-.452v.113h-3.844c-.076-.377-.152-.754-.227-1.131-.344.395.133 1.477-.113 1.922h-.113v.113h-.339c-.347.06-.612.091-.792.339h-.112c.037.151.075.302.112.453h-.112v.339h-.114v.452h-.113c.076.415.151.829.227 1.244.426-.025.897-.213 1.13 0 .274.069.248.119.452.226.086.454.121 1.086.114 1.696.127.097.017-.015.112.113h2.827c-.268.24-2.362.125-2.939.113v.792c-.35.066-.755.119-1.244.113v.339h.226v.113c-.119-.008-.252.306-.226.452h.113v1.47c.025.058.152.009.226.339h-.226c.02.347.136.765 0 1.244h-.113c.038.603.075 1.206.113 1.809h.339v2.035h-.339c.024.266.105.34.113.452l-.113.226h.226c-.048.114-.194.23-.113.453h.113v.226c.155.307.32.389.339.904-.274.07-.248.119-.452.226v.339h-.339v.114h.226v.226h-.113c.006-.147-.313-.179-.452-.113v.113c-.187.121-.186.163-.453.226v.226h.226v.113h-.339c.075.151.151.301.226.452h.113v-.226c.226-.068.097.016.227-.113.323.005.483.04.678.113-.012.566-.103.579-.678.565.066.173.09.184.112.453.335.123.342.129.679 0v.339c.909-.149 2.586-.004 3.844 0-.281.251-2.663.124-3.279.113v.226c-.49-.066-.415-.215-1.017-.226v.226c1.382.252 3.288.123 4.861.113-.189.171-.659.113-1.017.113h-2.827l.113.226h-.226c-.09.05.003.135-.226.113v-.113h-.113c-.113.114.039.367-.113.453-.223.126-.492-.147-.565-.113v.113c-.128.096-.018-.016-.114.113.114.037.227.075.34.113-.031.508-.179.561-.34.904h.227c.113.606.121 1.488.113 2.261h.791v-1.809c5.294-.01 10.122-.236 15.49-.226-.003 1.563-.004 2.515 0 3.958.226.068.097-.016.226.113h.226v.113h-.339v.113h-.113v.339c-1.9.021-3.383 0-5.088 0-.639 0-1.758.163-2.035-.226h-5.653c-.853 0-2.055.128-2.714-.113v-1.809h-.791c-.001.708.015 1.489.113 2.035h.226c.027.435.083.582.226.904h.113v1.018h.113c.099.367-.153.564-.113.791h.113c-.037 1.432-.075 2.865-.113 4.297-.471.028-.531.149-.904.226v.339h-.114c-.065-.173-.09-.184-.112-.452-.345.105-.105.112-.453 0v.113h-.113c.069.155.21.351.339.452v.113c.202.103.354-.078.453-.113v.452h-.34v.113c.313.14.773.214 1.131.34.176.928.276 3.164 0 4.07v.565h-.113v2.601h-.113c-.151.188-.301.377-.452.565h-.453v.113h-.113c-.087.328-.062.024 0 .339-.113.038-.226.076-.339.113v-.339c-.127-.097-.018.015-.113-.113h-1.47c.066.173.091.184.114.452h-.227v-.452c-.188.038-.377.075-.565.113v-.339c-.113-.038-.226-.075-.339-.113-.076-.113-.151-.226-.226-.339h-.113c-.242-.49.173-1.207.113-1.583h-.113c.037-.226.075-.453.113-.679h-.113v-.565h-.114c-.037-.603-.075-1.206-.113-1.809 0-.53-.12-2.112.113-2.374v-.226c.34-.076.679-.151 1.018-.227v-.226h-.791v.113c-.189-.037-.377-.075-.566-.113-.037.076-.075.151-.113.226-.403.004-.765-.017-1.017-.113v-.678h1.13v.226c.603-.075 1.206-.151 1.809-.226v-.113h.114v-.339c-.232.01-.372.118-.453.113v-.113c-.415-.038-.829-.076-1.244-.113-.037-2.035-.075-4.071-.113-6.106h.226c.076-.226.151-.452.227-.678h.113c-.02-.125-.311-.124-.226-.226.113-.038.226-.075.339-.113v-.226h.113v-1.696h-.792c.006.634.058 1.464-.113 1.922h-8.366v.226h-2.601c-.433-.001-.872-.105-1.017 0-1.063.006-2.653.202-3.505-.113v-1.922h.113c.034-.156-.024.014-.113-.113v-.113h.113c.049-.25-.112-.333-.113-.34v-1.469h-.34c.228-.284.279-.046.34-.566 5.401.011 10.273.237 15.602.226v1.809h.792c-.002-.774.004-1.652.113-2.261h.226v-.226c.226-.068.097.016.226-.113h.113v-.339h-.113c-.038.113-.075.226-.113.339h-.226v.113c-.113.038-.226.075-.339.113-.187-.305-.455-.289-.566-.678-.188.037-.377.075-.565.113.068-.226-.016-.098.113-.226.014-.016-.01-.215.113-.113v.113c.076-.038.151-.076.226-.113v.113h.113c.038-.076.076-.151.113-.226.322-.13.478.089.566.226h.113v-.339h.113v-.114c-.128-.096-.018.016-.113-.113-.618.042-1.152.192-1.583.34v-.227c.352-.073.504-.193.904-.226v-.226h-4.183c.191-.17.658-.112 1.018-.113h2.6c.068-.226-.016-.097.113-.226v-.113h-3.053c.191-.17.658-.113 1.018-.113h2.601v-.565h.113c-.038-.377-.076-.754-.113-1.131h.226v-.226c.266-.027.279-.048.452-.113.154.268.321.461.452.791.076-.038.151-.075.226-.113-.014-.786-.167-.48-.452-.904-.297.013-.384.044-.565.113v-.226h.226v-.114c-.233-.133-.435-.33-.565-.565h-.227c.019-.595.147-.815.34-1.243h.113c-.038-.114-.076-.227-.113-.34h.226c-.135-.288-.028-.283 0-.678h-.453c-.011-.504-.146-1.637.114-1.922v-.113h.339c.037-.603.075-1.206.113-1.809-.076-.038-.151-.076-.226-.113v-1.131h-.113c-.036-.228.113-.226.113-.226v-1.583c.326-.082.374-.121.452-.452-.113.037-.226.075-.339.113v-.113h-.113v-.113h.339c.016-.268-.015-.425.113-.566h.226v-.113c-.164-.087-.113-.217-.113-.452-1.244-.227-2.978-.122-4.41-.113.277-.247 2.563-.124 3.166-.113v-.339c.128-.097.018.015.113-.113.438.077.523.069.905.113v-.113c-.151-.038-.302-.076-.452-.113.013-.297.044-.384.113-.566.337.039.31.011.452.226h.113v-.678c.151-.113.301-.226.452-.339-.037-.49-.075-.98-.113-1.47h-.113v-.452h-.113c-.038-.113-.075-.226-.113-.339h.113c.095-.235-.065-.047.113-.226-.304-.366-.472-.171-.904-.34v-.113h-.227v-.113c-.075.038-.15.076-.226.113v-.452h-.113c.038-.528.076-1.055.113-1.583-.225.068-.097-.016-.226.113-.324.315-.362 1.241-.339 1.922-.523.012-1.737.158-2.035-.113-.218-.236.006-.649-.113-1.017h-.113c-.038-.264-.076-.528-.113-.792h-.226c-.038-.15-.076-.301-.114-.452h-3.278c-.017-.39-.061-2.038.113-2.148h.565c-.075-.113-.151-.226-.226-.339h.226v-.227c.302.038.603.076.905.113v-.113h.113c-.038.189-.076.377-.113.566h.339c-.027-.267-.048-.28-.113-.453l.113-.113c.113.038.226.076.339.113v-.113h.339l.113.113v-.113c.226.068.097-.015.226.113h.113c.097.198-.064.284-.113.34v.113h.339l.114-.453h.226c.075-.414.15-.829.226-1.243h-.452v-.113h.678v-.113h-.565v-.226h-1.47v.113h-1.018v-.113c-.188.037-.377.075-.565.113v.339c-.226-.068-.097.016-.226-.113h-.113v-.113h.113c-.038-.113-.076-.226-.113-.339h.113v-.114c-.088-.133-.12.047-.113-.113.075-.037.15-.075.226-.113v-1.809c-.539.011-2.267.087-2.374 0h-.34v.113h.34c.17 1.127 0 3.347 0 4.862v1.696c.337 1.204.112 3.727.113 5.201.075 2.826.15 5.653.226 8.48v4.974c0 .535.21 1.566 0 1.809v1.696c-.209-.108-.365-.332-.792-.226v.113c-.717.185-2.624-.276-3.052.113h-.114v-1.583s-.094-.011-.113-.226c-.098-1.134.154-2.555-.113-3.505-.113-7.499-.226-15-.339-22.499h-.339v24.987c0 .5.138 1.519-.113 1.809v1.017c-.806-.299-3.115-.159-3.957 0v-16.62c0-3.665.049-7.6-.113-11.08h-.226c-.114 7.386-.227 14.774-.34 22.16-.184.657-.113 1.76-.113 2.601-.037.98-.075 1.96-.113 2.939-.608-.112-1.486-.112-2.261-.113h-1.018v-.113h-.565v.226h-.113c-.038-1.319-.075-2.638-.113-3.957h.113v-5.766c.075-3.203.151-6.407.226-9.61 0-1.494-.001-3.209.113-4.523v-1.583c-.113-.037-.226-.075-.339-.113l-.339-1.017c-.339-.038-.679-.076-1.018-.113v-.114c-.188.038-.377.076-.565.114v.113c-.113-.038-.226-.076-.339-.113.068-.226-.016-.098.113-.227v-.113h-.452v.226c-.034-.303-1.072-.219-1.47-.226-.008.28.033.543-.113.679-.113.037-.226.075-.34.113v.226c-.075.038-.15.075-.226.113v.678h-.113s-.044.449-.113.226v-.226c-.075.038-.15.076-.226.113v-.113c-.146-.093-.135-.077-.226-.226h-.113v-.113h.113v-1.47h-.113c-.11.27-.099.405-.339.566-.138.142-.021.09-.226 0v-.113h-.34v-.227c-.262-.071-.265-.102-.452-.226v-.113h-1.13v-.113h-.34c-.037-.075-.075-.151-.113-.226h-2.261c-.038-.113-.075-.226-.113-.339h-.452v-.226h-2.488v-.113h-.226v-.113c-.152-.051-.02.042-.113.113-.16-.004.041-.07-.113-.113h-.565v.113h.339c-.011.432.023.472-.339.565v2.261h.565v-.113h5.653c.038.113.076.226.113.339h-14.133v-.339h5.654v.113h.678c-.01-.515-.111-2.126.113-2.374v-.113h.339v-.452h-.452c-.038.113-.075.226-.113.339-.075.038-.151.075-.226.113v.226h-.113v.226c-.076.038-.151.075-.226.113-.232.364-.027.407-.453.679v.226h-.226c-.037-.566-.075-1.131-.113-1.696h-6.105v.113h.565c-.113.151-.226.301-.339.452h-3.844c-.068-.226.015-.097-.113-.226v-.113h-.679c-.037-.075-.075-.151-.113-.226h-1.696v-.226h-.565v.226h-.792c-.068-.226.016-.098-.113-.226v-.113h-.339v.226c-.113-.038-.226-.076-.339-.113v-.113h-.113c.038-.076.075-.151.113-.227-.008-.024-.204-.043-.226-.226.105-.121.083.044.113-.113-.203.108-.176.162-.452.226.058.558.25.522.678.679v.452h-.565v2.261h.565v-.113h5.653v.339c-3.621.009-6.715 0-10.175 0h-2.714c-.381 0-.923.067-1.131-.113h-.113v-.113c.491-.179 1.367-.113 2.036-.113h3.731v.113h.678v-2.487h.565c.038-.377.076-.754.113-1.131h.679c.075-.113.15-.226.226-.339h.113c-.14-.503-.433-.403-.565-.904h-.792v-.792h-.452c-.086-.308-.027-.257-.339-.339v-2.374h-6.332v-.34h5.766v.113h.792v-.113h.904v.113c.603-.037 1.206-.075 1.809-.113h4.749c.038.113.075.227.113.34h-6.218v2.374h.339v.113h.113v.339h-.339c.15.189.301.377.452.565h.113v-.452h.113c.038-.113.075-.226.113-.339h.792v.226c.291-.021.389-.015.565-.113v-.113h.904v.226h.679v-.226h.226v.226h.678c.038-.075.076-.151.113-.226h.792v.226h.678v-.226h5.54c.076-.415.151-.829.226-1.244.113.038.227.076.34.113.037.076.075.151.113.226h-.226c.056.293.114.5.113.905h1.13c-.093-.146-.077-.135-.226-.226v-.113c.113.038.226.075.339.113v.113h.226v.113h1.47c.068.226-.016.097.113.226.093-.146.078-.134.226-.226v-.452c.151.037.302.075.453.113v.226h.339c.096-.127-.015-.018.113-.113.006-.786.108-1.891-.113-2.487-1.355.048-3.001.113-4.523.113-.477 0-1.424.127-1.696-.113h-.113v-.114c.463-.169 1.284-.113 1.922-.113 1.343 0 3.034-.132 4.184.113.247.053.338-.112.339-.113h1.357v.113c.247.053.338-.112.339-.113h5.992c.038.113.075.227.113.34h-4.183c-.458 0-1.324.115-1.583-.113-.297.013-.384.044-.565.113.001.965.041 2.026.113 2.826h.113v.113c.473-.262.434-.356 1.243-.339v.339h.453c.096-.127-.015-.017.113-.113v-.226h4.522v-.452h.113c.085-.319.203-.325.34-.565.431.002.708.057 1.017.112v-.452h.226c-.068-.225.016-.097-.113-.226.097-.115.195-.159.339-.226v-.226c.127.128.049-.001.113.226h.227v.226c.778.222.174.404.452.792h.113v.113h.791v.113c.151.037.302.075.453.113.075.113.15.226.226.339h.904c.583.001 2.671.134 2.94-.113h.113c-.038-.113-.075-.226-.113-.339h.226v-.226h.113v.339h.339v.226c7.198.038 14.398.075 21.595.113v-3.618c-.083-.14-.44-.11-.678-.113v-.113l.565-.113c.109-1.177.003-2.437 0-3.844-.226-.068-.097.015-.226-.113h-.113c.038.113.075.226.113.339-.113.038-.226.075-.339.113v.113h-.113v-.113c-.264-.103-.498-.112-.905-.113h-3.165c-.419 0-1.125-.092-1.357.113h-.452v-.113h-.113c.088-.169.117-.409 0-.679h-.114v-.226h-.113c-.075-.226-.15-.452-.226-.678-.98-.038-1.96-.075-2.939-.113-.055-.552-.12-1.224-.113-1.922.603-.038 1.206-.076 1.809-.113v-.226h1.017c.038.112.075.226.113.339.227-.213-.009-.094.113-.339h.113v-.226c.223-.419.548-.69.34-1.244h.226v-.113c.299-.094.266.197.339.226h.791c1.088.004 2.494.103 3.392-.113.551-.133 1.003.536 1.244-.226.146.093.134.077.226.226 0 0 .434.006.226.113h-.113v.452l.113-.113c.35-.065.213.277.565.226v-.113c.377-.037.754-.075 1.131-.113-.053-.246-.072-.32-.226-.452.02-.507.021-.5.226-.792h.113v-.339h.113v-.226h.113c.051-.152-.043-.023-.113-.113v-.113h.113c-.038-.302-.075-.603-.113-.904.377-.076.754-.152 1.131-.226v.112l.678.114c.113.602.226 1.205.339 1.808h.34c-.046.453-.194.689-.34 1.018.652.235.987.018 1.357.452h.113v-.678c.226-.038.452-.075.678-.113 0 0-.005-.428.114-.226v.226c1.357.234 3.203.113 4.748.113h1.809c.151-.189.302-.377.452-.565h.226v-.114h.227v-.113h.339v-.113c.496-.16 1.805.075 2.035.226.113.151.226.302.34.453.15-.038.301-.076.452-.113-.073-.268-.032-.212-.226-.34v-.113c.188-.037.376-.075.565-.113v.453h-.113c.037.075.075.151.113.226-.063.086-.088-.085-.227.113.345.232.049.207.227.452h.113v.113c.188.038.377.075.565.113v-.339h.34c.037-.113.075-.226.112-.339h.452c-.085-.336-.183-.278-.226-.679h-.226v.679h-.112v-.679h-.227v-.226c.113-.037.227-.075.339-.113v.113h.226c-.001-.61.032-1.24.114-1.696h.904v2.375c.113-.038.226-.076.339-.113v.339h.113v-.339c.496-.018.686-.066.792.339h.452v-.113h.113v-.226h.678v.339h.566c-.125-.671-.122-1.647-.113-2.487h.904c.048.473.119.976.114 1.582.112-.037.226-.075.338-.113v.113h.226v.226h-.226v.679h-.112v-.679h-.226c-.045.366-.103.331-.227.566.173.066.184.09.453.113v.339h.112v.113c.26-.034.289-.021.452-.113v-.113h2.149c.004.43-.01.855-.113 1.13h-2.148v-.226h-.34v.114h-.112v1.469h.338v.792h-.226v.791h.226v.226c-.112.038-.226.076-.338.113v-.113h-.226v-.226h.226v-.565h-.34c-.038.188-.075.377-.113.565-.323-.005-.484-.039-.678-.113v-.452c-.621.02-.514.114-.678.565-.488-.026-.383-.07-.679-.226v-.339h-.452c-.038.188-.075.377-.113.565-.324-.005-.484-.039-.679-.113v-.452h-.452c-.044.365-.103.33-.226.565-.297-.013-.384-.044-.566-.113v-.452h-.338v.113h-.114v.452h.34v.113c-.151.076-.302.151-.452.226-.076-.113-.152-.226-.227-.339h.227v-.791c-.189.037-.378.075-.566.113v.226h-.452c.001.846-.016 1.423 0 2.035-.189-.038-.377-.075-.565-.113-.076-.113-.152-.226-.226-.339h-10.063c-.079.03-.051.261-.227.226v-.113c-.226-.038-.452-.075-.678-.113-.038 1.055-.075 2.11-.113 3.166h.113v.339c.007.011.172.125.226.226h-.226v.565c.226.038.452.076.678.113v-.113h.114v.113c.113.038.226.076.339.113l-.113-.113c-.054-.332.278-.332.339-.452v-.226h.792c.037.075.075.151.112.226.347.307.399.503.905.339.01.549.023 1.428-.227 1.696-.183.16-.658-.058-1.13.113v.113h-.226v.113h-.113v-.113c-.16.001.041.069-.113.113-.452-.037-.905-.075-1.357-.113v1.357h12.777v-.113c.226-.075.452-.151.678-.226v.113h1.469s.155-.189.227-.226v-.566c-.522-.141-.729-.509-1.357-.565-.038-.113-.075-.226-.113-.339h.113v-.226c.226.068.097-.016.226.113h.565c-.188-.339-.377-.679-.565-1.018-.565.113-1.131.226-1.696.339v.114c-.264.037-.528.075-.792.113-.037.075-.075.15-.112.226h-.679v.113c-.226.038-.452.075-.678.113-.038.113-.075.226-.113.339h.113c.037.113.075.226.113.339h-.452v-.113h-.113c.037-.113.075-.226.113-.339-.603.264-1.207.528-1.809.791v.226c-.383.088-.52.262-.905.34-.162-.384-.327-.717-.339-1.244.226-.038.452-.075.678-.113v-.113c.167-.037.226.113.226.113.34-.075.679-.151 1.018-.226v-.113h.226l.113-.226c.264-.038.528-.076.792-.113v-.113h.113c-.038-.114-.076-.227-.113-.34.172-.066.184-.09.452-.113-.068.226.015.098-.113.226v.113c1.036-.197 1.601-.604 2.374-1.017.226-.075.452-.151.678-.226.076-.113.152-.226.226-.339.195-.132.255-.003.453-.227h.339v.114h.113c.038.226.075.452.113.678.151-.038.302-.076.452-.113-.04-.446-.111-.331 0-.679h-.226v-.452h-.113c-.002-.406.014-.642.113-.904h.905v1.356c.09.303.218.547.226 1.018-.264.075-.528.151-.792.226.151.264.302.528.453.792h.113v-.34c.307-.086.257-.027.339-.339.126.129.048-.001.113.226h.566v-.339h-.114v-.113h.34l-.114.339c.21.08.443.117.792.113.193-.585.207.37.339.566.23-.22.521-.052.792 0v.339h.226v-.226c-.076-.038-.151-.076-.226-.113.037-.113.075-.226.112-.34.264-.037.528-.075.792-.113v-.226h.339v-.113c.113.038.226.076.339.113v-.113c.113.038.227.076.34.113v.679c-.264.037-.528.075-.792.113v-.113h-.565c-.068.225.016.097-.113.226v.113c.113-.038.226-.075.339-.113.037.113.075.226.113.339h-.113v.226c-.075-.038-.151-.075-.226-.113-.038.075-.075.151-.113.226h-.34c-.037.076-.075.151-.112.226h-.226v.113c-.114.038-.227.076-.34.113v.566h.226l.114.226c.15-.038.301-.076.452-.113v.113c.376-.038.753-.076 1.13-.113v.113h.339v.113h.227v.113h5.087c.082-.326.122-.375.453-.452 0 0-.006-.428.113-.226v.226c.226.037.452.075.678.113v-.113c.226-.068.097.015.226-.113h.113v-.339h.113v-.114h-.113v-.113s.086-.007.113-.226c.308-.086.258-.027.34-.339h.226v-.226h.113c.037.113.075.226.113.339h.226c-.207.193-.029.302 0 .565.488 0 .894.05 1.243.114.065.254.438.675.226 1.13h-.112c-.153.222-.251.259-.34.565h-.226c.038.302.076.604.114.905.112-.038.226-.075.338-.113-.149.31-.293.21 0 .452v.113c-.15-.037-.301-.075-.452-.113v.339c.128.097.018-.015.114.113h.452s.016-.439.112-.226v.113h.114c.017-.495.069-.933-.226-1.13v-.113c.112.037.226.075.339.113.075-.113.151-.226.226-.34h.113v.114h4.184c.668 0 1.544.066 2.035-.114v-2.487c-1.341.078-3.011.113-4.523.113-.458 0-1.325.116-1.583-.113-.127-.097-.018.015-.113-.113.462-.17 1.284-.113 1.922-.113h4.297v.113h.113v-.113h.791c1.984.004 4.678-.011 7.01 0v.339h-5.766v-.113h-.566c-.001.809-.002 1.734.114 2.374h.565v-.226h.339c.07.353.104.476.452.566v-.227c1.674.304 4.716.211 6.219-.113v-.226c1.375-.069 3.087-.119 4.635-.113.118.148.232.168.339.339h.114v.113h-.226v.114h1.921v.113c.175.097.274.095.566.113v-.226c.733-.012.859-.198 1.47-.227v-2.374h-.566v.113h-5.653v-.339h14.133c-.038.113-.075.226-.113.339h-5.654v-.113h-.678v2.487h-.678c-.038.377-.075.754-.113 1.131h-.792c.124-.233.189-.199.227-.565-.421.113-.306.235-.565.452v.226c.112-.037.226-.075.338-.113-.064.265-.161.422-.338.565v.113l.226-.113v.113c.215.001.064-.077.112-.226.233.133.435.331.566.566h.565v.678h.452v.339c.114.038.226.076.34.113-.006.786-.109 1.891.112 2.488 1.835-.333 4.297-.123 6.332-.113v.226h-5.879c-.531.001-1.692.302-2.035 0m-114.65-49.861c-.678.038-1.357.076-2.035.113v-.113h-.679v39.459h-5.653v-34.258c0-1.868.04-3.967-.113-5.653h4.862c.414.037.829.075 1.244.113v.113c.15-.038.301-.075.452-.113v-.226h1.244c.037.113.075.226.113.339h.113v-.113h.339v-.113h5.766v39.911h-5.653z"/>
  </g>
 </g>
</svg>
