<?xml version="1.0" encoding="UTF-8"?>
<svg id="map" xmlns="http://www.w3.org/2000/svg" version="1.1" viewBox="0 0 1000 500">
  <!-- Generator: Adobe Illustrator 30.0.0, SVG Export Plug-In . SVG Version: 2.1.1 Build 123)  -->
  <defs>
    <style>
      .st0 {
        fill: #404040;
      }

      .st1 {
        fill: #3f3f3f;
      }

      .st2 {
        fill: #323232;
      }

      .st3 {
        fill: #111;
      }

      .st4 {
        fill: #2b2b2b;
      }

      .st5 {
        fill: #dfdfdf;
      }

      .st6 {
        fill: #050505;
      }

      .st7 {
        fill: #010101;
      }

      .st8 {
        fill: #a7a7a7;
      }

      .st9, .st10, .st11, .st12, .st13, .st14 {
        fill: none;
        stroke-linecap: round;
        stroke-linejoin: round;
      }

      .st9, .st11 {
        stroke-width: 2.1px;
      }

      .st9, .st14 {
        stroke: #4c4c4c;
      }

      .st15 {
        fill: #d6d6d6;
      }

      .st16 {
        fill: #6c6c6c;
      }

      .st17 {
        fill: #bdbdbd;
      }

      .st18 {
        fill: #a9a9a9;
      }

      .st19 {
        fill: #7c7c7c;
      }

      .st20 {
        fill: #232323;
      }

      .st21 {
        fill: #393939;
      }

      .st22 {
        fill: #939393;
      }

      .st23 {
        fill: #8f8f8f;
      }

      .st24 {
        fill: gray;
      }

      .st25 {
        fill: #363636;
      }

      .st26 {
        fill: #e3e3e3;
      }

      .st27 {
        fill: #d2d2d2;
      }

      .st28 {
        fill: #777;
      }

      .st29 {
        fill: #707070;
      }

      .st30 {
        fill: #828282;
      }

      .st31 {
        fill: #767676;
      }

      .st32 {
        fill: #7a7a7a;
      }

      .st33 {
        fill: #f6f6f6;
      }

      .st34 {
        fill: #ebebeb;
      }

      .st35 {
        fill: #454545;
      }

      .st36 {
        fill: #a1a1a1;
      }

      .st37 {
        fill: #171717;
      }

      .st38 {
        fill: #a5a5a5;
      }

      .st39 {
        fill: #969696;
      }

      .st40 {
        fill: #5a5a5a;
      }

      .st41 {
        fill: #d4d4d4;
      }

      .st42 {
        fill: #1d1d1d;
      }

      .st43 {
        fill: #ccc;
      }

      .st10 {
        stroke: #000;
      }

      .st10, .st12 {
        stroke-width: .3px;
      }

      .st44 {
        fill: #606060;
      }

      .st45 {
        fill: #757575;
      }

      .st11 {
        stroke: #e6e6e6;
      }

      .st46 {
        fill: #c3c3c3;
      }

      .st47 {
        fill: #c4c4c4;
      }

      .st48 {
        fill: #b1b1b1;
      }

      .st49 {
        fill: #dedede;
      }

      .st50 {
        fill: #373737;
      }

      .st51 {
        fill: #c6c6c6;
      }

      .st52 {
        fill: #575757;
      }

      .st53 {
        fill: #5d5d5d;
      }

      .st54 {
        fill: #303030;
      }

      .st55 {
        fill: #656565;
      }

      .st56 {
        fill: #bebebe;
      }

      .st57 {
        fill: #c7c7c7;
      }

      .st58 {
        fill: #929292;
      }

      .st59 {
        fill: #141414;
      }

      .st60 {
        fill: #717171;
      }

      .st61 {
        fill: #020202;
      }

      .st62 {
        fill: #b7b7b7;
      }

      .st63 {
        fill: #9b9b9b;
      }

      .st64 {
        fill: #848484;
      }

      .st65 {
        fill: #6f6f6f;
      }

      .st66 {
        fill: #7d7d7d;
      }

      .st67 {
        fill: #0b0b0b;
      }

      .st68 {
        fill: #262626;
      }

      .st69 {
        fill: #f0f0f0;
      }

      .st70 {
        fill: #666;
      }

      .st71 {
        fill: #242424;
      }

      .st72 {
        fill: #c5c5c5;
      }

      .st73 {
        fill: #9f9f9f;
      }

      .st74 {
        fill: #bababa;
      }

      .st75 {
        fill: #fafafa;
      }

      .st76 {
        fill: #bbb;
      }

      .st12 {
        stroke: #ccc;
      }

      .st77 {
        fill: #101010;
      }

      .st78 {
        fill: #f8f8f8;
      }

      .st79 {
        fill: #7e7e7e;
      }

      .st80 {
        fill: #878787;
      }

      .st81 {
        fill: #b8b8b8;
      }

      .st82 {
        fill: #676767;
      }

      .st83 {
        fill: #f7f7f7;
      }

      .st84 {
        fill: #282828;
      }

      .st85 {
        fill: #858585;
      }

      .st86 {
        fill: #8b8b8b;
      }

      .st87 {
        fill: #fefefe;
      }

      .st88 {
        fill: #747474;
      }

      .st89 {
        fill: #0c0c0c;
      }

      .st90 {
        fill: #d5d5d5;
      }

      .st91 {
        fill: #acacac;
      }

      .st92 {
        fill: #a2a2a2;
      }

      .st93 {
        fill: #1f1f1f;
      }

      .st94 {
        fill: #8a8a8a;
      }

      .st95 {
        fill: #b3b3b3;
      }

      .st96 {
        fill: #838383;
      }

      .st97 {
        fill: #bfbfbf;
      }

      .st98 {
        fill: #7f7f7f;
      }

      .st99 {
        fill: #131313;
      }

      .st100 {
        fill: #8c8c8c;
      }

      .st101 {
        fill: #f3f3f3;
      }

      .st102 {
        fill: #0a0a0a;
      }

      .st103 {
        fill: #fbfbfb;
      }

      .st104 {
        fill: #252525;
      }

      .st105 {
        fill: #494949;
      }

      .st106 {
        fill: #c2c2c2;
      }

      .st13 {
        stroke: #3f3f3f;
        stroke-width: .9px;
      }

      .st107 {
        fill: #b9b9b9;
      }

      .st108 {
        fill: #cbcbcb;
      }

      .st109 {
        fill: #aeaeae;
      }

      .st110 {
        fill: #9e9e9e;
      }

      .st111 {
        fill: #6a6a6a;
      }

      .st112 {
        fill: #191919;
      }

      .st113 {
        fill: #a4a4a4;
      }

      .st114 {
        fill: #616161;
      }

      .st115 {
        fill: #989898;
      }

      .st116 {
        fill: #313131;
      }

      .st117 {
        fill: #353535;
      }

      .st118 {
        fill: #ededed;
      }

      .st119 {
        fill: #787878;
      }

      .st120 {
        fill: #333;
      }

      .st121 {
        fill: #c8c8c8;
      }

      .st122 {
        fill: #d3d3d3;
      }

      .st123 {
        fill: #dadada;
      }

      .st124 {
        fill: #d1d1d1;
      }

      .st125 {
        fill: #090909;
      }

      .st126 {
        fill: #888;
      }

      .st127 {
        fill: #161616;
      }

      .st128 {
        fill: #0e0e0e;
      }

      .st129 {
        fill: #4c4c4c;
      }

      .st130 {
        fill: #898989;
      }

      .st131 {
        fill: #434343;
      }

      .st132 {
        fill: #cfcfcf;
      }

      .st14 {
        stroke-width: 1.5px;
      }

      .st133 {
        fill: #fdfdfd;
      }
    </style>
  </defs>
  <g id="map-artwork">
    <g id="lines">
      <path class="st12" d="M490,27.8h500"/>
      <path class="st12" d="M490,13.9h500"/>
      <path id="tropics" class="st101" d="M0,313.9h1000v-127.8H0v127.8Z"/>
      <path class="st14" d="M0,250h1000"/>
      <path class="st11" d="M0,61.1h1000"/>
      <path class="st11" d="M0,438.9h1000"/>
      <path class="st9" d="M500,500V0"/>
      <path class="st14" d="M0,250h1000"/>
      <path class="st13" d="M0,500V10"/>
      <path class="st13" d="M0,10V0"/>
      <path class="st13" d="M83.3,500V10"/>
      <path class="st13" d="M83.3,10V0"/>
      <path class="st13" d="M166.7,500V10"/>
      <path class="st13" d="M166.7,10V0h0"/>
      <path class="st13" d="M250,500V10"/>
      <path class="st13" d="M250,10V0"/>
      <path class="st13" d="M333.3,500V10"/>
      <path class="st13" d="M333.3,10V0h0"/>
      <path class="st13" d="M416.7,500V10"/>
      <path class="st13" d="M416.7,10V0h0"/>
      <path class="st13" d="M500,500V10"/>
      <path class="st13" d="M500,10V0"/>
      <path class="st13" d="M583.3,500V10"/>
      <path class="st13" d="M583.3,10V0"/>
      <path class="st13" d="M666.7,500V10"/>
      <path class="st13" d="M666.7,10V0"/>
      <path class="st13" d="M750,500V10"/>
      <path class="st13" d="M750,10V0h0"/>
      <path class="st13" d="M833.3,500V10"/>
      <path class="st13" d="M833.3,10V0"/>
      <path class="st13" d="M916.7,500V10"/>
      <path class="st13" d="M916.7,10V0"/>
      <path class="st12" d="M1000,500V10"/>
      <path class="st12" d="M1000,10V0"/>
      <path class="st12" d="M0,500h490"/>
      <path class="st12" d="M490,500h500"/>
      <path class="st12" d="M990,500h10"/>
      <path class="st12" d="M0,486.1h490"/>
      <path class="st12" d="M490,486.1h500"/>
      <path class="st12" d="M990,486.1h10"/>
      <path class="st12" d="M0,472.2h490"/>
      <path class="st12" d="M490,472.2h500"/>
      <path class="st12" d="M990,472.2h10"/>
      <path class="st12" d="M0,458.3h490"/>
      <path class="st12" d="M490,458.3h500"/>
      <path class="st12" d="M990,458.3h10"/>
      <path class="st12" d="M0,444.4h490"/>
      <path class="st12" d="M490,444.4h500"/>
      <path class="st12" d="M990,444.4h10"/>
      <path class="st12" d="M0,430.6h490"/>
      <path class="st12" d="M490,430.6h500"/>
      <path class="st12" d="M990,430.6h10"/>
      <path class="st12" d="M0,416.7h490"/>
      <path class="st12" d="M490,416.7h500"/>
      <path class="st12" d="M990,416.7h10"/>
      <path class="st12" d="M0,402.8h490"/>
      <path class="st12" d="M490,402.8h500"/>
      <path class="st12" d="M990,402.8h10"/>
      <path class="st12" d="M0,388.9h490"/>
      <path class="st12" d="M490,388.9h500"/>
      <path class="st12" d="M990,388.9h10"/>
      <path class="st12" d="M0,375h490"/>
      <path class="st12" d="M490,375h500"/>
      <path class="st12" d="M990,375h10"/>
      <path class="st12" d="M0,361.1h490"/>
      <path class="st12" d="M490,361.1h500"/>
      <path class="st12" d="M990,361.1h10"/>
      <path class="st12" d="M0,347.2h490"/>
      <path class="st12" d="M490,347.2h500"/>
      <path class="st12" d="M990,347.2h10"/>
      <path class="st12" d="M0,333.3h490"/>
      <path class="st12" d="M490,333.3h500"/>
      <path class="st12" d="M990,333.3h10"/>
      <path class="st12" d="M0,319.4h490"/>
      <path class="st12" d="M490,319.4h500"/>
      <path class="st12" d="M990,319.4h10"/>
      <path class="st12" d="M0,305.6h490"/>
      <path class="st12" d="M490,305.6h500"/>
      <path class="st12" d="M990,305.6h10"/>
      <path class="st12" d="M0,291.7h490"/>
      <path class="st12" d="M490,291.7h500"/>
      <path class="st12" d="M990,291.7h10"/>
      <path class="st12" d="M0,277.8h490"/>
      <path class="st12" d="M490,277.8h500"/>
      <path class="st12" d="M990,277.8h10"/>
      <path class="st12" d="M0,263.9h490"/>
      <path class="st12" d="M490,263.9h500"/>
      <path class="st12" d="M990,263.9h10"/>
      <path class="st12" d="M0,250h490"/>
      <path class="st12" d="M490,250h500"/>
      <path class="st12" d="M0,236.1h490"/>
      <path class="st12" d="M490,236.1h500"/>
      <path class="st12" d="M990,236.1h10"/>
      <path class="st12" d="M0,222.2h490"/>
      <path class="st12" d="M490,222.2h500"/>
      <path class="st12" d="M990,222.2h10"/>
      <path class="st12" d="M0,208.3h490"/>
      <path class="st12" d="M490,208.3h500"/>
      <path class="st12" d="M990,208.3h10"/>
      <path class="st12" d="M0,194.4h490"/>
      <path class="st12" d="M490,194.4h500"/>
      <path class="st12" d="M990,194.4h10"/>
      <path class="st12" d="M0,180.6h490"/>
      <path class="st12" d="M490,180.6h500"/>
      <path class="st12" d="M990,180.6h10"/>
      <path class="st12" d="M0,166.7h490"/>
      <path class="st12" d="M490,166.7h500"/>
      <path class="st12" d="M990,166.7h10"/>
      <path class="st12" d="M0,152.8h490"/>
      <path class="st12" d="M490,152.8h500"/>
      <path class="st12" d="M990,152.8h10"/>
      <path class="st12" d="M0,138.9h490"/>
      <path class="st12" d="M490,138.9h500"/>
      <path class="st12" d="M990,138.9h10"/>
      <path class="st12" d="M0,125h490"/>
      <path class="st12" d="M490,125h500"/>
      <path class="st12" d="M990,125h10"/>
      <path class="st12" d="M0,111.1h490"/>
      <path class="st12" d="M490,111.1h500"/>
      <path class="st12" d="M990,111.1h10"/>
      <path class="st12" d="M0,97.2h490"/>
      <path class="st12" d="M490,97.2h500"/>
      <path class="st12" d="M990,97.2h10"/>
      <path class="st12" d="M0,83.3h490"/>
      <path class="st12" d="M490,83.3h500"/>
      <path class="st12" d="M990,83.3h10"/>
      <path class="st12" d="M0,69.4h490"/>
      <path class="st12" d="M490,69.4h500"/>
      <path class="st12" d="M990,69.4h10"/>
      <path class="st12" d="M0,55.6h490"/>
      <path class="st12" d="M490,55.6h500"/>
      <path class="st12" d="M990,55.6h10"/>
      <path class="st12" d="M0,41.7h490"/>
      <path class="st12" d="M490,41.7h500"/>
      <path class="st12" d="M990,41.7h10"/>
      <path class="st12" d="M0,27.8h490"/>
      <path class="st12" d="M990,27.8h10"/>
      <path class="st12" d="M0,13.9h490"/>
      <path class="st12" d="M990,13.9h10"/>
      <path class="st12" d="M990,0h10"/>
    </g>
    <g id="countries">
      <path class="st38" d="M40.3,486.2h74.4c0-.1-36.9-2.1-36.9-2.1l-13.1-8.7,35.5-1.2-33.8-4.7-4.4-5.3,22.7,1.8,11-2.7-7.8-1.9,35.7-4.5,59.6-1.8,3.9,2.8,33.4,1.4-7.1-4.8h11.1l-11.3-2.5,38.5-.4,25.6,1.1,17.4,2,17.6-2.5.2-4.2v-11.9c.1,0,18.1-8.4,18.1-8.4l11.9-1.3-11.6,7.5-12.8,3.2.8,3.4,10.7,5.4,1.8,10.6-47.6,4-19.5,2.9,21.2,4.3-12.2,2,15.4.6-11,1.6,17.8,2.6,42.9,5.9,77.3-7.2-13.3-7.2,59.7-10.8-8.8-.5,14-6.9,16.5-1.6-.3,2,16.7.2,24.1-4,40.9,1.3,29.4-5.6,12.5,4.2,7.3-4.1,27-3.8,3.2-3.2,13.4,3,28.4,2h7.3l-4.6,6.8,9.4,3,18-6.2,3-2.6,25.8-5.8,3.8,2.2,29-3.3,24.5,3.5,12.6-3.3,12.1,3.5h32.2c0,.1,16.8-2.7,16.8-2.7l27.7,2.8,7.4,3.8,30.5,2.5,32.7,6.6-23.7,8.8,14,10.5-20.3.9-2.2,2.7,57.8,8.4v19.7H0v-19.7l40.3,5.8h0"/>
      <path class="st35" d="M159.1,113.9h70.9l21.2,2.8,15.1,4.1,4.8,9.8-.6,1.3v2.4c-.1,0,10.4-3.4,10.4-3.4l-.4-.5v-.5l9.1-3.4,6.8-1.5h5.1l1.2-.8,5.1-6,5.6,6.3,4.1-.2,2.7-2.3-.5,2h4.3l-7.8,2.6,2,2.6,12.5-5-2.6-1.7h-5.1c0,0-2.6-5.1-2.6-5.1l-6-.7,7.3-1.4-3.4-2.1-16.2,7,4.4-3.8-3.7-.9,3.8.8,14.5-6.1,12,.3,12.5-5.6-.4-2.7-6.3-2.9-6.6,2.7,5.7-2.7,2.8-1-9.2-1.2-4.2-4.8-7.3-10.1-3.4,5.7-5.4-.7-3.8,2.3,3.2-2.2-7.9-4.2,4.6-2.3-7.5-2.3-16.7-1.7-1.3,10.3,5.5,3.8-1.5,4.4-7.3,2.8,1.2,10.9-7.1-4.1-1.2-8.2-8.7.5-9.5-5.1-11.3-.2-3.9-4.4-1.4-5.6,11.6-7.1-8.8-3.1h16.1l2.6-2.9-12.4-2,11.4,1.8,10.3-2.4-4.2-2,10.3-.2.5-6.1-11.8-1.9-4.1,7.3-5.3-5.5-3.6,2.8-7.4-4-4.6-6.5-5.5,5.2,8.8,4.2-5.8,2.8-1,2.9-1-3.2-4.6-2.3,1.8,2.6-14-.2-11.1-3.5-6.2,2.1,7.8-1.2-4.4,6.3-7.9-4.6-13.9.6.3-3-26-1.3-.6-2.2-2.5,2.3-7.1-3.5-7.8,3.4-7.4,1.3,10.6-3.9-9.4,2.2-5.9,2.3-16.2-2.8v26l15.4,1.4,15.1,10.8v5.6l2.9.9,1.8,3.3h4.4l-3.2,1.9.3,1.4,8.2.7,5.7,5.4"/>
      <path class="st43" d="M400.5,66.3l9.3-6.9,14.6.2,13.7-4.1-19.2-1.1,10.5-2.4-8.8-2.4,19.5,4.6-11.1-5.4-5.3-2.9h19.3l-4.5-3.2,8.7.3-9.6-1.9,8.6-.6-8.7-4,12.1-.3-10.9-2,16.4-7.8-14.3-.2,25.3-2.9-34.2,3,6-4.3-8.1.2-20.6.9,31.5-2.5-39.3-.4,27.3-1.5-20.4-.9-38,1.7,18.8,1-16.3-.3,3.1,2.8-14.5.4-24.2-1.4,5.9,2.1-10.2-1.7-15.7,7.8-19,1.7,18.2,2.8-14.7,1.3,8,2.7,23.4.2,11.6,12,6.5-1.9,8.6,5.1-11.5-.4,12.3,1.8-8.8,4.7,9,1.1-9.9,1.1,7.7-1-8.1,1.9,9.7.2-10,.3,1.4,2.7,9.7-2.4-9.6,2.8,8.1.7-5.6,1.1,1.6,3.1,5.6-1.9-1.3,4.1,6.2,7.1,8.4-1.1.3,3.2h5.6c0,0,1.8-4.6,1.8-4.6l-1.9-2.8,5.7-6.6,14.7-2.8"/>
      <path class="st45" d="M1000,60l-10.8-4.1-15.5.2.2,2.9-22.7-2.5-3.8,3.1-5-6.3h-18.7c0,0-11.8-4.2-11.8-4.2l-9.4,1.8,5.7-1.8h-.2l-17.2-1.6-1.7,4-25,2-34.4-7.9-14.3.2.4,2.5-6.4-3.5-17.3,3,24-7.3-7.3-3.8-19.5-2.7-5,3.7-9.5-.3,3.8,3.7-3.8-3.1-35.9,4.3,2.5,4.8v-2.6l-17.4.9,7.4,9.7.3-4.5-13.2-1.9-6.3,2.3,6.1,1.9-8.2-1.9-1.4-3.7-2.3,6.8-1,3.6,10.6.6,3.9,3.7-6.9-3.9-12.6,7.7-8.4-1.6,11.6-2.5-.9-13.8h-10.7l-6.6,4.6,5.6,7.6-10-2.6-15,2.6-17.9-1.5-15.7,5.6-7.4-1.3,3-3.1-5.2,1.4v5.8c0,0-11.9.7-11.9.7l1.8,3-10.1-1.8,1.9,3.8-6.1-1.4-1.6-.6-1.6-4.6-6.3-2.7,16.9,3,9.5-3.1-29.4-7.2h.2l-5.1,2.1,7.1,17-10.4,6.5,6.7,1.7-6.2,1.3-1.2,4.6,1.4,5,5.2.5,4.8,5.9-.2,4.5,6.3,1.1,15.8,6,1,4.8-4.6,1.8h3.1l-4.6,1.3,2.3,1.8-5.5,2.4,9.5,5,11,1.8,6.5,2.5,4.3,1.7,2-1.7-5.3-7.5,7-5.1-6.6-8.5,11.7-6.1,8.5,1.4,18.8.9,1.9-9.2,25.1-2.9,10.8,3.8,7.7-1.6,6,8.2,11.3,2.7,10.5,3.8,1.4-.2,12.6-4.7,13.7,3.1,4.4-6.7,12.2,5.4,14.5,2.4,22.7-1.4,7-.5,2.2-7.6,5.5-1.8,10,1,5.3,9,8.7,2.6.9,3.2,10.4-1.6-4.5,8.8-6,.8-1,6.7.3.4h0l3.1-2.9,9.2-.5,14-13.8,3.4-13.4-4.6-2.9-6.8,2.2,1.2-2.2-7-1.7,20.5-11.9,19.5-1.5,9.1,2.4,6.3-.7-2.6-2,9-5.3h8c0,0-.6,3.4-.6,3.4l3.6-1.5,5.1-3.9,6.6.3-26.9,16.1,2,16.1,15.2-10.8,3.4-4-3.9-5.2,4.7-5.5,15.5-1.6,2.9,1.9,18.7-8.2,5.9,1.6-2.5-6-10.4-.7,14-.4,1.4-1.7v-8.3"/>
      <path class="st45" d="M0,68.2l2.3-2.7,16.7,6,.9-4,8.7-1.2-11-2.8-2.2,2.3L0,60v8.3"/>
      <path class="st64" d="M174.7,159.6l-.5-1.3-9.3-4.4-5.2-8.2,3-1.4-6.3-2.5-1.3-8.5.3-11.9-1.8-5.9,5.5.6-.9,2.9.9-5.2h70.9l21.2,2.8,15.1,4.1,4.8,9.8-.6,1.3v2.4c-.1,0,10.4-3.4,10.4-3.4l-.4-.5v-.5l9.1-3.4,6.8-1.5h5.1l1.2-.8,5.1-6,5.6,6.3-9.9,5.9-.2.6-.8,3.7h0l-2,.6-5,.9-1.7,1.3-1.7,4.4-.5-2.9-1.1.6,1.1,3.8-.9,1.2-1.6,2.5.8-2.3-1.6-1.5,1.1-3-1.3,4.3-2-2.1v-.3c-.1,0-.3,2-.3,2l2.4,3-2.8-.6,4,2.1.9,2.1-1.2-2.6-2.2,2.1,2.7.9-3.6.2,2,1.8-6.1,2.8-6.5,5.1-1.7,3.6,4.1,10.9-2.9,4.6-7.2-13.3-10.6-1-2.5-.3-3.1.6h-2.5c0,.1,3,.4,3,.4v3.1c-.1,0-12.3-3-12.3-3h0l-10.4,5.9,1.1,5.3-5.4-1.2-4.9-8h-8.9c0-.1-6.8-6.9-6.8-6.9l-7,1.2-15.7-3.8-6.7.5"/>
      <path class="st64" d="M138.9,94.7l-1.9,3.2-.9-3.7-3.5,1-8.5-10.3.5,3.5-12.1-5.1-22.8-3.4-5.4,4-6.5,1.6,7.6-6.2-11.7,7.7-13.8,7.5-13.6,3.3,16.5-7.5,1.7-4.6-9.4.8-5.6.6.8-5.7-5,2.5.3-3.1-4.1-1.5-3.3-.4,5-4.5,9.1-.8.5-3.9-19.9-2,10.7-2.6,6.9,1.7-1.9-2.7,6.2,1.5-18.3-5.4,14.2-5.1,14.6-3.3,42.9,4.9v26l15.4,1.4,15.1,10.8"/>
      <path class="st25" d="M589.3,324.5l-.5-2.5-3.2,2.4h3.7"/>
      <path class="st108" d="M531.8,86.2l5.2,10.1,7.1-2.1.9-7.1,6.2-1.4-6.7-1,8.5-.7-4.9-7.6,19-9.3-9.9-9-23.5,15.2-1.9,12.8"/>
      <path class="st38" d="M519.5,122.4l9.5-2.6-2.4-.5-.2-.6v-.7h-5.4c0,0-4.5,3.7-4.5,3.7l3,.8"/>
      <path class="st20" d="M599.8,150.2v3.6c0,0-.7,3.9-.7,3.9v1.6l8.7-1.9,6.1-2.9,3.7-7.5-15.8.8-2.1,2.5"/>
      <path class="st68" d="M836.9,180.2l2,.3-3.6,8.5-1.7-4.7,3.2-4.2"/>
      <path class="st62" d="M688.2,146.7l1.2-2.3-1.8-4,5.6-3.2v1.9l5.4,1.9,7.4-.8,2,6.4-8.9,1.5-2-4.9-8.8,3.5"/>
      <path class="st54" d="M612.3,279.1l-4.6-12.3,1.2-3.9-14.7-10.2-9.5.2.2,3.7-3.2,5.7,3.8,10.4,6.2,3.4,3.7.9,1.8,5.1,15.2-3"/>
      <path class="st72" d="M785.9,217.7l-5.7-2.8-1.7-2.4-3.1,8.7,3.5,8.9,4.7,2.6-2.6,1.7-2.8-2.2-5.1-5,1.3-5.9,2.5-4.1-4.1-9.1,2.1-3.6-4.4-6,7.6-5,3.3,2.2-1,5.6,6.9-2.4,3.7,2.6,1.4,8.7-8,2.2,1.6,5.3"/>
      <path class="st90" d="M503.3,233.1l1.2-.3-2-13.3-3-.4h.5c0,.1-.2,1.2-.2,1.2l.2.3,3.3,12.5"/>
      <path class="st46" d="M524,147.4l6.7-.4-2.9,8.1,4.3,2.8-5.6,8.2-5.6-10.1,3.1-8.5"/>
      <path class="st107" d="M599.8,150.2l.3-2.8-8.9,2.5-8.7-.3-6.4-1.6,2.7-1-5.8-3.4,2.6-.5-2.8-4.2,9.6-3.4,14.8-2.5,18.3,1.6,9.1,5.2v6.9l-6.9.2-15.8.7-2.1,2.5"/>
      <path class="st107" d="M572.3,136.9l.4,1.9,7.8-2.6-2.7-2.7-4.6.7-.9,2.7"/>
      <path class="st102" d="M646.8,134.2l5.4,1.8-5.7,1.6,3.3,8.6,9.2-2.6,6.6,3,4.8,4.5,7.7-1.1,4.8-4.3-6.2-4.3-8.9-6.4-4.7-4-7.4,3.7-8.8-.5"/>
      <path class="st58" d="M642.3,181.6l8,1.3,6.3-6.2.6,5.2-2.1,3.7-2.8,1.4-10.2-3.2v-2.2"/>
      <path class="st105" d="M486.1,87.1h5.5l-3.4,3.1,6.8-.3-5.2,4.4,10.2,6.2.4.5h-.4c0,0,4.9,3.1,4.9,3.1l-3.8,2.9-.4,2-14.3.4,7-3.2-5.3.2-1.2-3.3,5.5-1.3-.8-4.6-5.9.4.6-3.9-2.5,2.7,2.3-9.3"/>
      <path class="st105" d="M479.9,97l2.8,2.7h0l-5.2-1,2.5-1.8"/>
      <path class="st64" d="M67.2,193.7l2.8,2-2.4,1.7-.4-3.7"/>
      <path class="st64" d="M74.3,88.9l2.6,1.6-6.9.2,4.3-1.8"/>
      <path class="st24" d="M585.7,240.3l1.2,3.8-4.7,9.7,2.5-.9,9.5-.2,3.1-8.1-2.9-6.4-8.7,2"/>
      <path class="st40" d="M565.6,106.8h10.4c0,0,11.9-1.5,11.9-1.5l6.3,1.1,15.8,6,1,4.8-4.6,1.8-3.4.7-6.2,1.9,4.3,3.2-7.6,1.7-3.2-2.7,3.6-1.5-5.5-1v-2.7c0,0-5.9,5.6-5.9,5.6l-4.2-.7,4.1-3.8-3.7-3.6-4.5-.3-10.5.8-2.1-1.3,1.1-1.8,2.9-6.8"/>
      <path class="st88" d="M351.8,343.7l-12.4,2.1-1-5.7,1.6-6.2,10.8,5.1,1.1,4.7"/>
      <path class="st78" d="M655.6,134.7v-9.7l7.4-1.4,9.7,5.6,16,6.1h4.4c0-.1,4.2-2.8,4.2-2.8l.6,3.3,4.9.5-9.5,2.8v-1.9l-5.5,3.2,1.8,4-1.2,2.3-5.5-1-6.2-4.3-8.9-6.4-4.7-4-7.4,3.7"/>
      <path class="st94" d="M333.4,226.3h-4.5c0-.1,2.1-2.5,2.1-2.5l-6-1.9,3.2-1.8-9,2-8.9-1.8-4.8-4.2.6,2.1-4.9,1.8v4.9c-.1,0,.7-7.8.7-7.8l-5.7,7.4,3.8,6,12.6,2.3-1.1,9.5,2.7,4.4,9.6-2.6-3.9-5.9,5.3,2,3.8-1.9,2.2-2.6-1.8-2.1,3.9-7.2"/>
      <path class="st91" d="M790.1,221.2l1.1,5,2.7-4,2,1.2,7.5-5.9-.8-9.8-6.6-6.4-2.2-5.6,6.1-5.4.4.3-7.2-4.8-9.4,2.2,2.9,4.3,4.1.5-2.1,3.8,10,8.9.2,3.9v6.5l-4.7,1.9-3.9,3.6"/>
      <path class="st65" d="M463.4,173.1l-10.7,19.2,11.3-1.6-.3-4.3,3.1-8.6h9.3v-4.6h-12.5"/>
      <path class="st52" d="M623.6,201.7l-4.8,2.8,2.1,10.3,14.3-3.7,12.2-7.2-3.1-6.6-17.8,10.8-3-6.4"/>
      <path class="st100" d="M536.6,266.3l-2.7-.2,2.5-3.2,7.8-2,7.6-20.6,1.6-4.1,8.7,2.3,14.2-2.5,9.5,4.3,1.2,3.8-4.7,9.7-1.6,3.7,1.1,4.8,3.8,10.4-6.7,3v6.3l4,1.7v3.6l-7.2-5.2-8.9-1.9h-5l-1.1-10-10.5,2.3-2.8-2.4-1.3-3.8h-9.3"/>
      <path class="st31" d="M585.5,272.7l-6.7,3v6.3l4,1.7v3.6l-7.2-5.2-8.9-1.9v5.9h-5.5v8.8l4.1,4.1,5,.5h5.2l9.1-6,7.8-4.5-.6-12.6v-.2l-6.2-3.4"/>
      <path class="st113" d="M586.9,312.3l-5.4-.7-11.4-12.2h5.2l9.1-6,7.1,3v9.2c0,0-4.7,6.6-4.7,6.6"/>
      <path class="st81" d="M670.2,151.1l7.7-1.1,4.8-4.3,5.5,1,8.8-3.5,2,4.9,9-1.5-1,.6-8.1,1.6-4.8,6.8-1.6,5.8-7.3,2-1.3,3.8h-15l2.7-3.2-3.5-5.7,1.9-7"/>
      <path class="st56" d="M555.6,139.8l-1.8-6,2.2-1.9,2.3,4.6-2.7,3.2"/>
      <path class="st47" d="M524,147.4l-24,3.1-6.2,2.1,2.9,8.3-7.3,1.1.5,2-14,6.3v4l10.7,6.3,13.3,8.8,11.8,7.5,21.5-12.1-7.2-7.3.4-11.3-5.6-10.1,3.1-8.5"/>
      <path class="st75" d="M504.9,131.9l-.7-.3h0l.7.3"/>
      <path class="st34" d="M536.6,266.3l-2.6.6,4.3,15.9-5.6,15.1,5.8.2,26.8.8-4.1-4.1v-8.8h5.6v-5.9h-5.1l-1.1-10-10.5,2.3-2.8-2.4-1.3-3.8h-9.3"/>
      <path class="st38" d="M233.3,451.5l-17.5-1.1,9.6-1.5,7.8,2.6"/>
      <path class="st38" d="M299.8,451.8l.9-2.9-10.9-.4,14.1-1.4-4.1-5.2,11.1,7.1-11.1,2.8"/>
      <path class="st38" d="M297.6,465l-5.1,1.9-17.1-2.2,22.2.3"/>
      <path class="st38" d="M334.4,472l-1.6,3.1-16.4-1.9,18-1.2"/>
      <path class="st0" d="M338.3,340.1l-.9,5.6,5.1,6.8-4.6,4.4-11.3.9.2,5.6h-7.9l4.3,5h-3.8c0,.1-1.8,6.7-1.8,6.7l-5.5,2.7,5.1,3.8-9.1,7.3,1.6,6.6-9.7-1.1-4.6-6.8,6.9-13.9-2.9-6.3,6.4-22.4-2.1-8.1,6.2-11.8,3.2-11.8,2.6-2.9,5.3,3,1.1-2.4,3.6.7,13.6,8.2-2.4,5.9h8.4l2.7-4.9,2.2,4.3-10.6,8.7-1.6,6.1"/>
      <path class="st0" d="M309.4,396.3l9.7,5.6-9.7.4v.3-6.2"/>
      <path class="st19" d="M619.9,137.3l5.1-1.7,3.7,2.4,3.2,2.7-2,.8-1.7-1.4-3.7-.2-4.6-2.6"/>
      <path class="st49" d="M901.8,356.5l-3,1.5-8.8-2.5-2.5-5.6-3.9-4.9-3.5,3.2,2.6-7.7-5.1,6.9-6-7.7-7.2-2-14.5,2.3-16.6,4.5-5.7,3.4-7.9-2.1,1.7-6.9-7.2-16h3l-2.3-5.5,1.8-6.5,7.7-3.7,11.7-2.7,5.3-8.8,2.3,4.2-.4-4.9,4.5-1.5,2.1-4.7h3.9c0,.1,1.2,4.7,1.2,4.7l1.8-2.3,4.8,1.7-1.4-4.2,3.6-4.8h4.7l-1.9-2.7,10.4,3.1,3.5.3-4.3,7.2,12.9,7.6,4.5-6.9,1.1-11.7,2.7,3.2,1.9,6.1,4.4,1.6,2.5,10.9,6.9,3.8,2.4,6.4h3.2l5.9,7.6,1.9,9.7-9.4,19.3-1.7,5.5-9,4-4.8-2.3"/>
      <path class="st49" d="M925.1,321.6l.7-3-.7,3"/>
      <path class="st49" d="M904.9,369.9l-3-6.9,10.1.8-1,6.1h-6.2"/>
      <path class="st49" d="M863.7,283.1l-1.5-2,2.9.3-1.4,1.8"/>
      <path class="st84" d="M527,118h9.2c0,0,2.2-3.4,2.2-3.4l9.3,2.1-2.9,3.2-6.7.9-9-.9-2.4-.6-.2-.6.6-.7"/>
      <path class="st119" d="M624.5,139.9l3.7.2,1.7,1.4-1.7.6-3.7-2.2"/>
      <path class="st119" d="M631.9,140.7l-3.2-2.7-3.7-2.4,5.6,1.2-2.1-3,4.3,1.7,2-1.7,5.1,4.4-4.2,5-2.1-3.2-1.8.7"/>
      <path class="st79" d="M756.1,191.2l-2-4.9-6.2-2.9,3.8,4.4-4.4,1.3v-9.4l-1.7-3.7,4,3.7,7.1.7-3.4,3.9,1.2,1.9,1.9-1.9.9,4.6-1.1,2.3"/>
      <path class="st126" d="M565.3,100.1l5-.6,2.8-3.8,4.9-1.3,5.2.5,4.8,5.9-.2,4.5-11.9,1.3h-10.4c0,0-.3-6.6-.3-6.6"/>
      <path class="st117" d="M507.1,108.1l2.3-.8,7.3,1.7.3,1.8-.9,1.7-9.1-4.3"/>
      <path class="st86" d="M254.8,198.7l-1.8,7.2-.6-5.3,2.4-1.8"/>
      <path class="st74" d="M504.5,232.7l3-.4,2.3-14.9-3.2-.4-4,2.4,1.9,13.3"/>
      <path class="st70" d="M747,174.1l3-2.8,4.6,1.5-7.6,1.3"/>
      <path class="st56" d="M306.8,280.4l2.5,4.3-2.3,13.9,6.4,14.8,2.6-2.9,5.3,3,1.1-2.4,3.6.7,2.5-7.2,10,1.4,2-5.5-2.5-5.3h-5.1l-.8-6.9-10.9-3.7-2.5-4.3-.3-3.4-11.5,3.5"/>
      <path class="st121" d="M551.8,131.9l-6.3-4.7-.7-1.1-.4-1.7,7,.3.9.5-.5,6.6"/>
      <path class="st32" d="M570.2,299.4l-11.9,1.4-2.8,10.2v7.7l1.8,5.7,6-3.3h7.5l10.7-9.6-11.4-12.2"/>
      <path class="st111" d="M351.8,343.7l5.8-10.3,2,1.2-4.2,4.8,9.2-10.1v-8.8l21.6-9.4,5.1-11.9.4-11,.2-2.7h2.1l8.9-12.2-1.3-8.7-12.7-6.6-13.3,1.2.5-4.3-6.2-2.9-5.9,3-2.1,2.5.7-2.5h-3.6l-.4-2.4-5.2,1.9,7.9-7.7-5-8-2.9,4.7h-5.2l-5.1,1.1-7.7,1.6-1.2-8.3-3-2.3-2.2,2.6-3.8,1.9-5.3-2,3.9,5.9-9.6,2.6-8.3-1.4,2,3-2.6.2.3,13.3-8.2,2.5-3.1,6.7,2.3,5.2h7.4l-.3,4.5,3-.2,11.5-3.5.3,3.4,2.5,4.3,10.9,3.7.8,6.9h5.1l2.5,5.4-2,5.5.5,5.3,5.9.6,1.3,4.7,3.2.2-1,4.2,2.2,4.3-10.6,8.7,10.8,5,1.1,4.7"/>
      <path class="st111" d="M365.6,250.7l-5.5,4.3-.6-4.5,6.1.2"/>
      <path class="st106" d="M816.9,237.3l2.6-.8h0l-2.6.8"/>
      <path class="st106" d="M819.9,236.4l-.3.2.3-.2"/>
      <path class="st77" d="M579.4,128.5l-1.6,4.9-4.6.7-9.5,1-.7-8,16.4,1.3"/>
      <path class="st76" d="M492.6,223.7l-7.9-2.6,4.3-8.5,11-4.2h.7l6,8.6-4,2.5-3.1-.4-7.4.4.4,4.2"/>
      <path class="st16" d="M774.3,221.3l-2.8-17.3-2.4-2.5-3.4,4.2h-3.9l-.5-9.5-5.2-4.9,1.1-2.4,7-12.9,5.6-1.3.6-3.1,2.2.2,1.6,6.3-3.3,5.4,3.8-.5,6.2,7-3,3.4,3-3.4-3,3.4-7.6,5,4.4,6-2.1,3.6,4.1,9.1-2.5,4.1"/>
      <path class="st121" d="M580.6,257.6l1.1,4.7,3.2-5.7-4.3,1"/>
      <path class="st71" d="M543.1,229.1l8.6-1.4,11.6-8.1h.3l1.8,6.2,10.9,10.3-14.2,2.5-8.7-2.3-1.6,4.1h-5.7l-1.1,3.5-5-10.7,3-4.1"/>
      <path class="st127" d="M533.4,263.9l.5,2.1,2.4-3.2-2.9,1.1"/>
      <path class="st4" d="M790.1,221.1l-4.3-3.4-1.6-5.3,8-2.2,6.5-1v6.5l-4.7,1.9-3.9,3.5"/>
      <path class="st129" d="M527.3,243.5l-.2-5-3.2-1.9,3.3-5.5,5.8-.8,7.7-12.4-1.6-4.2,4.5,8.6-4.8,1,4.3,5.8-3,4.1,5,10.7h-8.1c0,.1-5.5.1-5.5.1l-4.2-.5"/>
      <path class="st35" d="M134.3,99.7l-2.9,2.4-1-2.5h3.9"/>
      <path class="st35" d="M145.9,109.2l10.9,6.7-10.9-6.7"/>
      <path class="st35" d="M167.4,44.3l12.3,1.5-20.8,6.7-8.9-2.5,3.4-6.6,14,.8"/>
      <path class="st35" d="M181.7,48.3l16.7.2,2.1,2.5-.6-4.9,8,2.7,11.8,6.2-5.4,3.7-10.2-1.9-18.7,2.9-11.4-4.2,16.5-.9-16.9-.7,6.9-2.6-11.2-.4,4.9-3.4,7.6.9"/>
      <path class="st35" d="M269.4,69.7l5.7,4.1-11.8.9-5.4-1.3,4.4-6.5,7.2,2.8"/>
      <path class="st35" d="M209.8,45.7l-2.2,1.9-4.9-1.8h7.1"/>
      <path class="st35" d="M228.2,55.9l6.5,3.4-10.8-.6,4.4-2.8"/>
      <path class="st35" d="M345.5,106.6l-3.4,5.7,4.1,1.4,5.3-.7-.5,4.9,2.3-1.6-.7,4-3.2-3.5-3.2,2.9-1.1-3-9.8.9-.3-.8,4.4-5.3,6.2-4.9"/>
      <path class="st35" d="M332.5,119.9l-2.3,3.2,3.7-.7h-4.8l3.3-2.5"/>
      <path class="st35" d="M313.2,60.3l16.6,4.6-6.3,4.9-2.2-4.1h-11.6c0,0,3.2,2.3,3.2,2.3l7.6,7.3-12.1-2.4,8.2,5.2-14.8-3.3-10.6-3.9h-7.8l1.6-2.8,5.7,2.1,5.3-2,6.2-1.4,5.6-1.7-10.5-.5-10.2-5.4-6.6-5.5-5.4,2.7-19.3-1.4-4.6-2.4-1.2-2.2,10.7-5.5-1.8,8,3.1-5.3,10.3-2.3,2.8,5.1,10.8-2.4,5.5,4.4,4.7.5,4.1-1.6-1.9,2.6,3,1.7,4.6-2.4,2.4,2.5-2.9,1.3,9.1.6-7.3,1.3,6,1.6"/>
      <path class="st35" d="M235.9,44.4l13.6.3-10.7,5.3-2.8-5.7"/>
      <path class="st35" d="M170.4,35.1l7.6,1.9-12.3,2.4-7.5-.8,12.2-3.6"/>
      <path class="st35" d="M211.9,29.6l12.6,4.2-15.7-1.4,3.1-2.8"/>
      <path class="st35" d="M221.2,37.1l7.7,4.2-14.3-1.2,2.5-2.5,4.1-.5"/>
      <path class="st118" d="M566.7,195.8l-22.2-11.1-2.8,1.4,2.8,7.4-1.4,9.6-5.1,8.8,1.2,1.8,4.5,8.6-4.8,1,4.3,5.8,8.6-1.4,11.6-8.1-2.6-5.1,3-7.6,3-.4v-10.6"/>
      <path class="st95" d="M304.4,301l-2.9,39.7-6.2,13,3.8,11.2-.8,8.7-3.1,5.7-1.2-2-4.3,2.3,3.3.5,3.6,3.3h-4v6.1c-.1,0,3.1,5.1,3.1,5.1l3-.7-2.7,3.4,5.5-1-4.9,1.7,5.8-1.1-2.8,1.5,10.3-2.8-9.7-1.1-4.6-6.8,6.9-13.9-2.9-6.3,6.4-22.4-2.1-8.1,6.2-11.8,3.2-11.8-6.4-14.8-2.5,2.4"/>
      <path class="st95" d="M313.8,403.1l-3.7-.4,3.7.4"/>
      <path class="st95" d="M310,402.7l.9,2.1-5.4-1.5,4.6-.6"/>
      <path class="st95" d="M309.4,402.5l-9.4-1h8.4c0-.1-3.9-4.9-3.9-4.9l5-.3v6.2"/>
      <path class="st95" d="M294.7,370.5l1.1-4.3-1.1,4.3"/>
      <path class="st38" d="M845.5,138.6l-8.8,3.8,1.9-3.6v-2.7l-5.6,2.8-5.8,4.7,3.2,2.6h10.5c0-.1-9.5,6.3-9.5,6.3l7.3,9.3-6.3-1.7,6.3,3.8-4.8,2.1,5.5.9-4.7,7.4-3.7,3-5.3,7-8.1,3.7-2.5-2.3.4,2.5-5.3,1.8-3.6.2-1.2,3.3-.2-1.4.3-2.1-5.5-.2.4.3-7.2-4.8-9.4,2.2-2.7,2.3-6.2-7-3.8.5,3.3-5.4-1.6-6.3-2.2-.2-3.5-3.5-12.3,4.7-4.6-1.5-3,2.8-2.1-1.5-19.8-6.5-7.3-6.5,3-.3-1.7-3.7,3.6-3.2-6.6-1.1-9-4.3.9-.6-2.5-7.8,17.4-5.6-1.1-7.9,7.5-.7,1.3-5.8h7.4l4.6-5.2,1.4-.2,8.5,6.2-.6,4.5,13.1,2.9,2.7,4.3h0l24.6,2.8,13.6-2.5,5.1-2.9v-3.9l22-4.3-4.1-3.7-7.9.3,3.1-5.4,7-.5,2.2-7.6,5.5-1.8,10,1,5.3,9,8.7,2.6.9,3.2,10.4-1.6-4.5,8.8-6,.8-1,6.7-17.3,6.4"/>
      <path class="st38" d="M804.4,194.5h3.8l-1.2,3.3-5.1.8,2.5-4.1"/>
      <path class="st51" d="M301.9,217.1l-9.9,2-5.2,8.9-1.7-2.1-1.4,4,2.4,9.2-5,6.9,9.8,4.3,6.5,6.5,7.9.6-1.7,3.2,2.1,1.2-.3-13.3,2.6-.2-2-3,8.3,1.4-2.7-4.4,1.1-9.5-12.6-2.3-3.8-6,5.7-7.4"/>
      <path class="st55" d="M531,261l2.4,3,2.9-1.1,7.8-2,7.6-20.6h-5.7l-1.1,3.5h-8.1c0,.1-.4,2.7-.4,2.7l3.7.8v7.9c0,0-8.1,1.2-8.1,1.2l-1.2,4.5"/>
      <path class="st66" d="M267.6,219.7l3,3.8-.9,4.3-7.7-5.2v-3.2l5.6.4"/>
      <path class="st112" d="M479.1,237.9l12.3-2h0l1.2-12.2h0l-7.9-2.7h0l-6.8.8h0l-1.4,7.2h0l2.6,8.9"/>
      <path class="st89" d="M551.8,132.3l-11.3-8.1-1.6-.6,4.8-.8,2.3-2.2,3.7,2.3,2.7-.4v2.9c0,0-1.1-.5-1.1-.5l-7-.3.4,1.7.7,1.1,6.3,4.7v.4"/>
      <path class="st125" d="M264.1,189.1l10.5-3.6,10.6,4.1,8.8,4.4h-9.3l-12.3-6.9-8.4,2.1"/>
      <path class="st37" d="M596.1,150.9l-4.3,3-2.1-1.4,6.4-1.7"/>
      <path class="st40" d="M545.9,116.2l3.5-3.5,3.7-1.3-11.9-2.7-7.6,1.5,4.8,4.3,7.5,1.7"/>
      <path class="st131" d="M524.1,97.5l-1.5-4.7,5-1.3-4.7.7,6.4-2.5-3.1,8.1-2.2-.3"/>
      <path class="st23" d="M620.2,218h-2.1l1.7-3.3-3.7,3.3,3.3,1.4.9-1.4"/>
      <path class="st91" d="M300.7,195.3l9.6,3-9.6,1.5v-4.6"/>
      <path class="st115" d="M276.8,259.3l1.6-3.7-3.2.8v-3.6l5.8-6.8,9.8,4.3-10.4,13.6-4-1.6.4-3"/>
      <path class="st2" d="M598.9,185.7l-9.1-18,5.3,5.2,2-5-.2.2-1.8-4.8v-.3c0,0-25.3-.9-25.3-.9l-.4,26.8,24.8.7,4.7-3.8"/>
      <path class="st122" d="M256,212.7l-6.3-.9,2.1-1.9,4.2,2.8"/>
      <path class="st1" d="M527.2,247.2v-3.7l4.3.5v3.2h-4.3"/>
      <path class="st132" d="M601.3,210.1l1.5-7.5,4.5-2.7,3.1,8.2,9.4,6.6-1.2,1.1-10.7-6.4-6.6.7"/>
      <path class="st128" d="M577.9,84.8l-1.2,4.6h-9.7c0,0-1.8-3.9-1.8-3.9l12.7-.7"/>
      <path class="st17" d="M601.3,210.1l6.6-.7,10.7,6.4-2.5,2.2,3.3,1.4,3,5.6,11,2.8-8.4,8.6-8.5,2.6-6.6,1.5-10-3.3-8.2-9.2,3.6-7.3,5.2-6,.9-4.6"/>
      <path class="st59" d="M330.5,394.5l5-1.7-5,1.7"/>
      <path class="st59" d="M334.1,394.8l5.5-1.2-5.5,1.2"/>
      <path class="st96" d="M994,298.2l2.4,1.8-1.9.7"/>
      <path class="st57" d="M567.1,67.2l3.6,2.4-12.1,6.1.9,6.1,4.1,2.2,13.8-2.1,10.3-6.5-7.1-17h0l-3-2.9-6,3.1-14.3-.2,9.9,9"/>
      <path class="st132" d="M520.9,128.4h-.3c0,.1-9.8.6-9.8.6l-1.9,3.1-4.1-.2-.7-.3-9.1-2.2,1.8-8.1-10.2-6.1,9.5-.3-1.6-3.1,5.4,1.1,7.1-4.9,9.1,4.3,1.5.2,5.2,1.4-1.8,3.8-4.5,3.8,3,.8,1.4,6"/>
      <path class="st114" d="M349.5,235.1l3.4-.3,3.5,3.9-2.9,4.7h-5.2l1.2-8.4"/>
      <path class="st49" d="M527.2,247.2l-3,4.5,6.8,9.2,1.2-4.5,8-1.2v-7.9c0,0-3.6-.8-3.6-.8l.4-2.6h-5.5v3.2h-4.3"/>
      <path class="st7" d="M454,212.3l3.5.4-4,1.2h0l8.2-1-7.7-.5"/>
      <path class="st111" d="M611.1,129.5l11,1.8,6.5,2.5,2.1,3-5.6-1.2-5.1,1.7-4.5-2.6-4.3-5.2"/>
      <path class="st26" d="M520,102.1l7.3-.8-3.2-3.9,2.2.3h0l4,2.4,9.3.6v-.6l1.6,8.5-7.6,1.5,4.8,4.3-2.2,3.5h-9.2c0,0-.5,0-.5,0h-5.5c0,0,1.8-4,1.8-4l-5.2-1.4-.7-1.9-.3-1.7,3.3-6.9"/>
      <path class="st72" d="M491.4,235.9l8.6-1.5,3.3-1.3-3.3-12.5-.2-.3.2-1.1h-.4c0-.1-7.4.3-7.4.3l.4,4.2-1.2,12.2"/>
      <path class="st47" d="M485.1,149.5h0"/>
      <path class="st44" d="M572.3,136.9h-6.5l-3.1.7-.2,4.5,4.3,1.8-3.7,1.8,1.3,3.1-5.8-3.9,3.1-.9h2.8l-7.9-3.1-1-1.1,2.7-3.2,5.4-1.4,9.5-1-.9,2.7"/>
      <path class="st43" d="M349.2,54.7l6.9,1.9-4.8,1.1-2-3"/>
      <path class="st111" d="M253,205.8l1.9.5-3.1,3.6-2.1,1.9-6-2.2,1.4-4.2h3.6l-1.5-4.9h5.1l.6,5.3"/>
      <path class="st48" d="M463.1,224.9l-4.8-5.3,3.6-4.8,6.6.6v.2h6.6l2.8,6.2h0l-1.4,7.2-5-2.5-2.6-4.2-5.8,2.7"/>
      <path class="st124" d="M453.6,215.8l4.8,1-1.4,1.8,1.4,1.1,3.6-4.8-8.3,1"/>
      <path class="st93" d="M341,234.8l-4-2.5.6-2.7-4.2-3.2-3.9,7.2,1.8,2.1,3,2.3,1.2,8.3,7.7-1.6-4.4-5.7,2.2-4.1"/>
      <path class="st27" d="M300.7,199.9l-7.5-1.1,5.9-.3-3.1-3.4h4.7v4.8"/>
      <path class="st98" d="M255,206.3l14.1,2-11.6,5.6-1.5-1.3-4.2-2.8,3.1-3.6"/>
      <path class="st133" d="M563.6,116.8l-2.1-1.3-13.8,1.1-2.9,3.2,4.9,3.1,6.7-1,7.3-5.1"/>
      <path class="st5" d="M440.6,72.6l-7.5-2.8,6.5-1.6h-7.9c0,0,3.9-2.7,3.9-2.7l5.6,3.5,13.7-3.8,7,3-12.6,5.5-8.9-1.1"/>
      <path class="st61" d="M747.3,189.1l-3.1-1.4-4.1,6.8-17,11.9-1.2,12.6-1.1,5.6-6.9,2.1-10.2-22.6-1.1-16-2.2,3-3.8,1.3-4.9-4.4,4.3-2.2-6.4-1.9,8.1-1.8-4.4-7.2,6.6-2.7,7.7-8.6,2-3.4-4-6.6,10.7-2.4,6.6,1.1-3.6,3.2,1.7,3.7-3,.3,7.3,6.5-2.7,3.8,7.5,3.7,12.7,3.2,2.3-4.2,2.1,1.5,7.6-1.3,12.3-4.7,3.5,3.5-.6,3.1-5.6,1.3-7,12.9-.9-4.6-1.9,1.9-1.2-1.9,3.4-3.9-7.1-.7-4-3.7,1.7,3.7v9.4"/>
      <path class="st60" d="M764.5,234.5l6.3.9,15,12.6-1.4,1.3h3.6c0-.1,1.8,3.6,1.8,3.6l.4,4.8,4.3,1.3-.8,7.2-3.1.3-8.5-7.5-17.7-24.4"/>
      <path class="st60" d="M775.6,254.9l-.9-2.4.9,2.4"/>
      <path class="st60" d="M794.1,254.1l1.8,4.5-3.8-2.9,2.1-1.6"/>
      <path class="st60" d="M804.6,244.3l-1.5,7.1,3.1,6.9,4.5,1.6,7.7,1.7,3.8-1.8.6-4.9,4.7-8,3.1.4-5.5-7.3,1.5-1.6-4.8-.6-2.7,6.4-12,3.4-2.5-3.4"/>
      <path class="st60" d="M805.3,271.8l13,2.6-.4-2.7-9.5-3.8-11.1-1.4-5,2.4,13,3"/>
      <path class="st60" d="M813.7,269.2h3.3c0,.1-3.3,0-3.3,0"/>
      <path class="st60" d="M818,272.5l3.4.8-3.4-.9"/>
      <path class="st60" d="M823.2,272.8l-.9,1.9.9-1.9"/>
      <path class="st60" d="M825.6,273.3h5l-5.4,2,.5-2"/>
      <path class="st60" d="M830.7,276.2l4.9,1.5-4.9-1.5"/>
      <path class="st60" d="M834.1,273h7.6l-5.5,1.9-3.1-.2,1.1-1.7"/>
      <path class="st60" d="M845.7,272.6l1.8.6-1.8-.6"/>
      <path class="st60" d="M847.5,276.3l6.1-3-6,.7-4.7,4.8,4.5-2.5"/>
      <path class="st60" d="M865.7,269.8l-1.4,2.5,1.4-2.5"/>
      <path class="st60" d="M832.2,265.6l-2.3-7,3.5-10.6,14.5-2.2-2.8,3.1h-11.1l1.2,4.9,7.7-1.8-6,2.9,4.4,7.2h-3.8l-2.1-5-1.2,4.9-.8,3.3"/>
      <path class="st60" d="M843.2,253.6l-2.1.4,2.1-.4"/>
      <path class="st60" d="M845.6,254.6l2.5.7-2.5-.7"/>
      <path class="st60" d="M848.4,254.9h2.6c0,.1-2.6,0-2.6,0"/>
      <path class="st60" d="M840.9,262.8l-1.2,2.1,1.2-2.1"/>
      <path class="st60" d="M841.9,262.2l-.7,3.6.7-3.6"/>
      <path class="st60" d="M850.4,258.7l3.1.7-3.1-.7"/>
      <path class="st60" d="M856.1,258l6.7.7.7,2-8.1-.8.7-2"/>
      <path class="st60" d="M873.7,265.1l-.5,2.2.5-2.2"/>
      <path class="st60" d="M858.1,249.4h-2.7l1.4,3.1-2.4-3.7,1.3-5-1.2,3.6,3.5,2"/>
      <path class="st60" d="M884.9,270.5l1,1.9-3.5,1,2.5-2.9"/>
      <path class="st60" d="M891.7,275.4l-2.4-3.5-3.4,1.2-2.4-8.1-11.4-4.3-.3-2.5-2.7,3.2-2.6-3.6,5.5-1.9-8.3-1.9,4.1-3,5,3,2.4,5.4,7.6-5.3,8.8,3.2v18.1"/>
      <path class="st0" d="M671.2,180l-10.6-1.2-11.3-3-9.9-9h-4.5l-8.7-11.2,2.6-5.1-4.3-3.8v-6.9l3.8,2.3,5.5-2.1,2.1,3.2,6.1,4.8,7.8-1.7,9.2-2.6,6.6,3,4.8,4.5-1.9,7,3.5,5.7-2.7,3.2,6.9,7.6-4.8,5.4"/>
      <path class="st108" d="M633.2,166.6h1.6c0,.1-8.7-11-8.7-11l2.6-5.1-4.3-3.8-6.8.2-3.7,7.5-6.1,2.9,1.4,3.1,15,8.4,5.1.3,3.9-2.5"/>
      <path class="st79" d="M482.6,99.8l-.3,5.3-9.4,2-1.9-2,4.8-1.3-3.8-4,8-2.6-2.5,1.7,5.2,1"/>
      <path class="st18" d="M595,163l2.5-4.9,1.2-.4h.3v1.6l-.5,3.3-1.4,5.4-.2.2-1.8-4.8v-.3"/>
      <path class="st29" d="M538.1,123.3l-4,.4.3,3.4,17,11.3h-5.3l-1.5,6.2-1.1-5.9-12.7-6.6-2.8-4.5-7.1.7-1.4-6,9.5-2.6,9,1v2.6"/>
      <path class="st29" d="M543.4,143.8l-1.5,4.4-7.4-3.2,8.9-1.2"/>
      <path class="st29" d="M525.7,135.4l-1.1,6.6-2-5.1,3.1-1.4"/>
      <path class="st73" d="M865.7,159.9l-1.8-4.2-4,1.7,3,6.5,2.7-4"/>
      <path class="st73" d="M873.9,155.3l-4.4,3.8-2.8-1.8,7.2-2"/>
      <path class="st73" d="M892,134.9l2.6,5.2-4.8,12.3-4.1,1.5-5.6-1.3-3,4.6-1.2-3.6-12.4,2.2,6.1-4.6,10.2-4.9h5l7.2-11.3"/>
      <path class="st73" d="M894.3,123.6l5,3.9,5.7,2-7.2,4-7.7-1.8,2,2.1-3.2,1,3.8-5.1,1.6-6.2"/>
      <path class="st73" d="M856.3,175.4l-1.8,2.2,1.8-2.1"/>
      <path class="st8" d="M597.1,168.4v-.5l1.4-5.4.5-3.3,8.7-1.9,1.4,3.2-6.4,2,1.4,4.2-7,1.8"/>
      <path class="st6" d="M636.7,121.2l5.5-2.1,5.5,2.3.2,2.6-4.7,2.3h-3.7c0,0,7.3,7.8,7.3,7.8l8.8.5v-9.7l7.4-1.4,9.7,5.6,16,6.1h4.4c0-.1,4.2-2.8,4.2-2.8l9.3-2.5,10.8,1.1,5.6,2.1-1.1-7.9,7.5-.7,1.3-5.8h7.4l4.6-5.2h1.4c0,0-11.9-3.8-11.9-3.8l-11.3-2.7-6-8.2-7.7,1.6-10.8-3.8-25.1,2.9-1.9,9.2-18.8-.9-8.5-1.4-11.7,6.1,6.6,8.5"/>
      <path class="st80" d="M615.5,254.6l-6.6,8.3-14.7-10.2,3.1-8.1-2.9-6.4,5.4-1.1,10,3.3,6.7-1.5-2.6,3.2,1.6,12.5"/>
      <path class="st123" d="M634.5,170.7l-1.3-4.1-3.9,2.5,5.2,1.5"/>
      <path class="st95" d="M706,140.2l-7.4.8-5.4-1.9,9.5-2.8-4.9-.5-.6-3.3,9.3-2.5,10.8,1.1,5.6,2.1-17.4,5.6.5,1.4"/>
      <path class="st38" d="M778,193.5l3-3.4,2.7-2.3,2.9,4.3,4.1.5-2.1,3.8,10,8.9.2,3.9-6.5,1-1.4-8.7-3.7-2.6-6.9,2.4,1-5.6-3.3-2.2"/>
      <path class="st76" d="M566.9,89.3h9.7c0,0,1.4,5.1,1.4,5.1l-4.9,1.3-4.7-2.4-9.2.9.2-3.2h8.3l-.8-1.9"/>
      <path class="st29" d="M599.9,153.8l-2.4,4.3,1.2-.4h.2l1-3.9"/>
      <path class="st7" d="M468.1,230.7l11,7.2-2.6-8.9-5-2.5-3.4,4.3"/>
      <path class="st41" d="M532,157.9l12.2,5.1,9.5,2.9,6.6-7.4,9.5,3.6-.4,26.8v5.5l-2.8,1.4-22.2-11.1-2.9,1.4-8.2-1.5-7.2-7.3.4-11.3,5.6-8.2"/>
      <path class="st63" d="M526.7,119.3l-.2-.6h0l.2.6"/>
      <path class="st110" d="M559.3,94.3l9.2-.9,4.7,2.4-2.8,3.8-5,.6-1.9-.2.2-2-4.4-1.6v-2"/>
      <path class="st30" d="M517,110.7l.7,1.9-1.5-.2.9-1.6"/>
      <path class="st15" d="M557,134l1.9-1.3h4.5l.2,2.5-5.4,1.3-1.3-2.5"/>
      <path class="st76" d="M620.3,310.7l3.3-5.3v-10.5c0,0,9.7-3.9,9.7-3.9l3.6-7.8,3.4,9.4-2.4.6-6.9,26.2h-8.5l-2.1-8.7"/>
      <path class="st63" d="M591.6,276.3l3.7.7,1.7,5.1-1.1,5,3.7,4.3-1.8,6.3-2.1-7.1-3.7-1.6-.6-12.6"/>
      <path class="st3" d="M804.6,244.3l2.5,3.4,12-3.4,2.7-6.4,4.8.6,4.7-3.3-5-1.4-.9-3.1-5.6,5.8-.3.2h0c0-.1-2.6.6-2.6.6l-7.3,5.3-.2,3.7-4.8-2"/>
      <path class="st3" d="M778.1,232.2l3.2,10,6.2,4.3,2.2-.5-2.4-9.3-3.7-4-2.6,1.7-2.8-2.2"/>
      <path class="st39" d="M511.8,196.8l-11.8-7.5-13.3-8.8h-5l3,26.4-16.7-.4-1.5,2.5h-.6l2.5,6.3v.2h6.6l2.8,6.2,6.8-.7,4.3-8.5,11-4.2h.7l10.1-2,1-9.5"/>
      <path class="st69" d="M452.6,192.3l2.4,1.5-.9,11.6h8.8l3.7,3.7,1.5-2.6,16.7.4-3-26.4h5l-10.7-6.4v3.6h-9.3l-3.1,8.6.3,4.3-11.3,1.6"/>
      <path class="st42" d="M230.2,177.9l-2.1,9.4,5.6,10.8h13c0,.1-.5-.4-.5-.4l2.9-6,8.9-1.6-3.3,8.7-2.3,1.8h-5.1l1.5,4.8h-3.6l-1.4,4.3-1.5-1.5,1.5,1.5-7.3-5.2-8.1,1.3-15.8-6.6-5.5-4.4-.7-7.3-10.2-8.6-7.7-9.3-2.5-6.3-5.4-2,6,10.2,9.3,14.3-7.2-4.4-8.1-8.3,2.6-2.2-8.5-11.2,6.7-.5,15.7,3.8,7-1.2,6.8,6.8h8.9c0,.1,4.9,8.1,4.9,8.1l5.4,1.2"/>
      <path class="st82" d="M574.1,116l4.5.3,3.7,3.6-4.1,3.8-4.2-7.7"/>
      <path class="st104" d="M520.7,128.5h-.2,0"/>
      <path class="st85" d="M744,113.4l8.5,6.2-.6,4.5,13.1,2.9,2.7,4.3,24.6,2.8,13.6-2.5,5.1-2.9v-3.9l22-4.3-4.1-3.7-7.9.3,3.1-5.4-22.7,1.4-14.5-2.4-12.2-5.4-4.4,6.7-13.7-3.1-12.6,4.7"/>
      <path class="st66" d="M493.9,152.5l-8.9-2.3-2.3,2.5-8.5,6.8-2.6,9-8.2,4.6h12.5v-2.9l14-6.3-.5-2,7.3-1.1-2.8-8.3"/>
      <path class="st97" d="M612.3,279.1l.6,13.3-16.9,12,2.6,12.5-7.5,4.2.2,3.5h-2.1l-.5-2.5-1.9-9.8,4.8-6.6v-9.2c0,0-7.3-3-7.3-3l7.8-4.5,3.7,1.6,2.1,7.1,1.8-6.3-3.7-4.3,1.1-5,15.2-3"/>
      <path class="st93" d="M532.7,297.9l7.7,15.1-.2,1.2,5.7,15.1,9.8-.4v-17.9l2.8-10.2,11.9-1.4-5-.5-26.8-.8-5.8-.2"/>
      <path class="st87" d="M725.1,166.1l19.8,6.5-2.3,4.2-12.7-3.2-7.5-3.7,2.6-3.8"/>
      <path class="st92" d="M509.4,107.3l3.8-4.4,6.9-.8-3.3,6.9-7.4-1.7"/>
      <path class="st89" d="M983.4,365.8l-3.6-3.3-3.5,3.5-13.1,12.4,11.2-.9-.8-3.1,4.8-2.4-3.5-1.7h5l3.5-4.5"/>
      <path class="st89" d="M991.5,360.2l-4.7,5.4.3-3.9-4.3-2.2,3.2-6.5-6.3-7.4,9.2,8.9,7.1.2-4.5,5.5"/>
      <path class="st32" d="M269.1,208.3l-1.4,11.3-5.6-.4-4.6-5.3,11.7-5.7"/>
      <path class="st131" d="M541.6,186.2l-8.3-1.5-21.5,12.1-1,9.5-10.1,2,6,8.6,3.2.4h0c0,.1,3.6-5.7,3.6-5.7l13.2,2.7,11.1-2.5,5.1-8.8,1.4-9.6-2.9-7.3"/>
      <path class="st116" d="M523.8,236.7l-6.9,1.5-2.3-4.5-7.1-1.3,2.4-14.9h0c0,.1,3.6-5.7,3.6-5.7l13.2,2.7,11.1-2.5,1.3,1.8,1.6,4.2-7.7,12.4-5.8.8-3.4,5.6"/>
      <path class="st67" d="M856.6,142.7l-2.4-3.1,8.8-7.2-.2-.3-17.3,6.4,3.6,4.1-2.7,1.4,5.6.8,4.6-2.2"/>
      <path class="st38" d="M585.5,56.2l.8-1.4-5.5-1.6-4-.7-6.3.4-20.2,4.6-13.7,7.4-10.1,8.1h5.3l-12.7,2.4-5,2,4.8.9-4.5,2.1,6.9-.4-7,1.6,5.3.4-5.3,2.8,3.9,4,11-5,2.4,2.5,1.9-12.8,23.5-15.2,14.3.2,6-3.1,3,2.9h0l5.1-2.1"/>
      <path class="st38" d="M569,26.8l-2.6,3.2-17-2.6,19.6-.6"/>
      <path class="st38" d="M529.7,29.1l6.4,3.7,11.9-.6-10.3,1,7.7,4.1,14.4-6.1-14.6-3.6.4,3.2-16-1.8"/>
      <path class="st8" d="M647.5,203.8l13.1-6.5,5.6-9-8.9-6.4-2.1,3.7,2.3,3.2-13,8.3,3.1,6.6"/>
      <path class="st22" d="M671.2,180l14.1.2,4.2,3.7,8.1-1.8-4.4-7.2,6.6-2.7,7.7-8.6,2-3.4-4-6.6,10.7-2.4-9-4.3-8.1,1.6-4.8,6.8-1.6,5.8-7.3,2-1.3,3.8h-15l6.9,7.6-4.8,5.4"/>
      <path class="st130" d="M270.7,223.4l7,.8.5-.3,6.9,1.9-1.4,4-.6-3.7-3.9-1.1h-.2c0,.1-2.3,4.7-2.3,4.7l-6.8-2.2.9-4.3"/>
      <path class="st132" d="M891.7,257.2l18,9.4-.8,4.1,10.3,7.7-8.8-.4-8.9-7.2-6.6,2,3.3,2.2-6.5.3v-18.1"/>
      <path class="st132" d="M922.7,261.5l-3.2,5.3-7.4-1.6h7.1l3.5-3.7"/>
      <path class="st34" d="M348.3,321l-2.7,4.8h-8.4l2.4-5.8-13.6-8.2,2.5-7.2,10,1.4.5,5.3,5.9.6,1.3,4.7,3.2.2-1,4.2"/>
      <path class="st83" d="M304.4,301l-16.3-11.6-6.9-15.5-6.7-7.2,2.4-7.3-.4,3,4,1.6,10.4-13.6,6.5,6.5,7.9.6-1.7,3.2,2.1,1.2-8.2,2.5-3.1,6.7,2.3,5.2h7.4l-.3,4.5,3-.2,2.5,4.3-2.3,13.9-2.5,2.4"/>
      <path class="st119" d="M839.7,198.9l-2.5,8.7,1.6,3.6,5.5.5.4,3.4-4.3-3.9.2,2.2-5.5-1.8-2.4-7,2.3-6.2,4.7.4"/>
      <path class="st119" d="M842.4,215.1l2.2,2.4-2.2-2.4"/>
      <path class="st119" d="M834.4,212.4l3.3,1.1-1.2,2.5-2-3.6"/>
      <path class="st119" d="M848.5,222.8l3.2,7-1.2,2.8-1.5-2.7-.7,4.6-4.8-6.2-5,2,4.2-4.5.8,2.1,5.1-2.9-.2-2.3"/>
      <path class="st119" d="M845.6,221.9l-1.8,1,1.8-1"/>
      <path class="st119" d="M843.1,219.8l-.9,4.9-2.3-2,3.1-2.9"/>
      <path class="st119" d="M839,216.9l3.2,1.2-3.4,2.9.3-4.1"/>
      <path class="st119" d="M832,218.3l.6,2.5-7,6,6.5-8.5"/>
      <path class="st21" d="M539.5,100.2l15-1.5,10.8,1.4.3,6.8-2.9,6.8-21.4-5-1.7-8.5"/>
      <path class="st103" d="M479.4,146.7h-4.2l-1.6-4.3,2.1-9,7.1,1.1-3.4,12.2"/>
      <path class="st77" d="M642.3,181.6v-4.3l-1.1,3.9,1.1.4"/>
      <path class="st99" d="M582.4,124.4l-3,4.1-16.4-1.3-6.7-5.3,7.3-5.1,10.5-.8,4.2,7.7,4.2.7"/>
      <path class="st45" d="M559.1,96.3l4.4,1.6-.2,2-8.8-1.2,4.5-1.3v-1.1"/>
      <path class="st45" d="M894,102.4l.7,20.2,4.3-1.3-1-8.4,4.2,2.1-4.8-15.3-3.3,2.7"/>
      <path class="st45" d="M931.2,111l2.3-2-2.3,2"/>
      <path class="st45" d="M892.1,44.8l6.5,1.6-6.4-1.6"/>
      <path class="st45" d="M906.9,40.1l12.4,1.2-12.4-1.2"/>
      <path class="st45" d="M888.4,42.2l10.7-.4,4.7-1.6-18.5-1.9-5.1,2.6,8.8,1.3"/>
      <path class="st45" d="M776.3,33.5l16.4-1.5-8.3-2.6-8.1,4.1"/>
      <path class="st45" d="M776.3,29.9l-5.4-2.5-13,1.7,18.3.8"/>
      <path class="st45" d="M642.8,50.6l6.6-4.2,7.8.4,3,6.8-17.3-3"/>
      <path class="st45" d="M658.3,42.6l-8.1,3.7,40.1-10-32,6.3"/>
      <path class="st53" d="M582.2,253.8l-1.6,3.8,4.3-1-.2-3.7-2.5.9"/>
      <path class="st47" d="M597.1,168.4l-1.1,3.6,12.8,19.4,10,13.1,4.8-2.8,3,6.4,17.8-10.8,13-8.3-2.3-3.2-2.8,1.4-10.2-3.2v-2.2c0,0-.9-.4-.9-.4l-6.7-10.6-5.2-1.5-5.1-.3-15-8.4-6.4,2,1.4,4.2-7,1.8"/>
      <path class="st28" d="M454.1,205.4l-2.8,3.7,2.7,3.2,7.7.5-8.2.9,3.8.6-3.7,1.4,8.3-1,6.6.6-2.5-6.4h.6c0,.1-3.7-3.5-3.7-3.5h-8.8"/>
      <path class="st76" d="M551.8,132.3v-.4l.4-6.6v-2.9c0,0,4.1-.6,4.1-.6l6.7,5.3.5,5.5h-4.5l-1.9,1.3-1-2.1-2.2,1.9-2-1.4"/>
      <path class="st131" d="M463.1,224.9l5,5.8,3.4-4.3-2.7-4.2-5.8,2.7"/>
      <path class="st120" d="M562.6,113.7l-9.5-2.2-3.7,1.3-3.5,3.5,1.8.4,13.8-1.1,1.1-1.8"/>
      <path class="st130" d="M538.8,123.6l-.7-.3v-2.6l6.7-.9,1.2.7-2.3,2.2-4.8.8"/>
      <path class="st50" d="M615.4,254.6l17.8-17,9.6-16.6-1.8-4.3-16.3,4.4-4.5-3.1h0l-.8,1.4,3,5.6,11,2.8-8.4,8.6-8.5,2.6-2.6,3.2,1.6,12.5"/>
      <path class="st41" d="M545.8,329.4l5.1,15.5,4.7,1.8,21.9-5,13.9-17.2h-5.8c0-.1,3.2-2.4,3.2-2.4l-1.9-9.9-5.4-.7-10.7,9.7h-7.5l-6,3.2-1.8-5.7v10.2l-9.8.4"/>
      <path class="st100" d="M579.7,329.5l-4.7,2.8,3,2.9,3.8-3.7-2.1-2"/>
      <path class="st33" d="M851.9,144.9l-.5,9.9,8.1-3.3-3-8.7-4.6,2.2"/>
      <path class="st109" d="M508.9,132.1l-8.9,6.9-.3,2.8.3.9-5.9,5.2-9,1.6-5.7-2.9,3.4-12.2-7.1-1.1-1.5-3.1,3.8-2,17,1.1,9,2.2.7.3,4.1.2"/>
      <path class="st6" d="M721.7,228.9l1.8,4.6,3.9-3.7-5.5-6.9,1.9.9-2.3,5.1"/>
      <path class="st36" d="M607.3,199.9l-4.8-11.1-3.6-3.1-4.7,3.8-24.8-.7v5.5l-2.8,1.4v10.6l-3,.4-3,7.6,2.6,5.1h.3l1.8,6.2,10.9,10.3,9.5,4.3,8.7-2,5.4-1.1-8.2-9.2,3.6-7.3,5.2-6,2.4-12.1,4.5-2.7"/>
      <path class="st87" d="M349.5,235.1l-8.6-.4-2.2,4.1,4.4,5.7,5.2-1.1,1.2-8.4"/>
      <path class="st10" d="M1000,0v480"/>
    </g>
  </g>
</svg>