<?xml version="1.0" encoding="UTF-8"?>
<svg id="wireframe" xmlns="http://www.w3.org/2000/svg" version="1.1" viewBox="0 0 688 727.9">
  <!-- Generator: Adobe Illustrator 30.0.0, SVG Export Plug-In . SVG Version: 2.1.1 Build 123)  -->
  <defs>
    <style>
      .st0, .st1, .st2 {
        fill: none;
      }

      .st0, .st2 {
        stroke: #ccc;
      }

      .st3, .st4, .st1, .st5 {
        stroke: #999;
      }

      .st3, .st4, .st5 {
        fill: #fff;
      }

      .st3, .st2 {
        stroke-width: 1.4px;
      }

      .st4 {
        stroke-dasharray: 4 4;
      }

      .st1 {
        stroke-width: 2px;
      }

      .st6 {
        fill: #e0e0e0;
        stroke-width: 2.6px;
      }

      .st6, .st7, .st8, .st9 {
        stroke: #666;
      }

      .st10, .st11, .st12 {
        isolation: isolate;
      }

      .st11 {
        fill: #333;
        font-size: 20px;
      }

      .st11, .st12 {
        font-family: Arial-BoldMT, Arial;
        font-weight: 700;
      }

      .st12 {
        fill: #666;
        font-size: 30px;
      }

      .st7 {
        stroke-width: 1.5px;
      }

      .st7, .st8, .st9 {
        fill: #f5f5f5;
      }

      .st8 {
        stroke-width: 1px;
      }

      .st9 {
        stroke-width: 1.7px;
      }
    </style>
  </defs>
  <g>
    <rect class="st7" x="15.6" y="10" width="660" height="140" rx="2" ry="2"/>
    <g class="st10">
      <text class="st11" transform="translate(35.6 32)"><tspan x="0" y="0">STEP 1: PICK YOUR SVG</tspan></text>
    </g>
    <rect class="st4" x="35.6" y="45" width="620" height="90" rx="4" ry="4"/>
    <circle class="st1" cx="345.6" cy="90" r="20"/>
    <path class="st1" d="M345.6,80v20M335.6,90h20"/>
  </g>
  <g>
    <rect class="st8" x="15.6" y="444.7" width="660" height="65.5" rx="1.3" ry="1.3"/>
    <g class="st10">
      <text class="st11" transform="translate(35.6 471.8)"><tspan x="0" y="0">STEP 3: PASTE PROMPT IN YOUR AI</tspan></text>
    </g>
  </g>
  <g>
    <rect class="st9" x="15.6" y="170" width="660" height="254.9" rx="2.3" ry="2.3"/>
    <g class="st10">
      <text class="st11" transform="translate(35.6 192)"><tspan x="0" y="0">STEP 2: DESCRIBE YOUR INTENTION</tspan></text>
    </g>
    <rect class="st3" x="35.6" y="205" width="620" height="135" rx="2.9" ry="2.9"/>
    <line class="st2" x1="56.6" y1="215" x2="624.1" y2="215"/>
    <line class="st2" x1="56.6" y1="225" x2="561" y2="225"/>
    <line class="st2" x1="56.6" y1="235" x2="603.1" y2="235"/>
    <g>
      <rect class="st6" x="152" y="365.1" width="384" height="38.4" rx="7.7" ry="7.7"/>
      <g class="st10">
        <text class="st12" transform="translate(233.1 395)"><tspan x="0" y="0">Generate Prompt</tspan></text>
      </g>
    </g>
  </g>
  <g>
    <rect class="st7" x="15.6" y="528.5" width="660" height="187" rx="2" ry="2"/>
    <rect class="st5" x="35.6" y="563.5" width="620" height="78" rx="2" ry="2"/>
    <line class="st0" x1="45.6" y1="573.5" x2="245.6" y2="573.5"/>
    <line class="st0" x1="45.6" y1="583.5" x2="195.6" y2="583.5"/>
    <g class="st10">
      <text/>
    </g>
    <g class="st10">
      <text class="st11" transform="translate(35.6 549.5)"><tspan x="0" y="0">STEP 4: PASTE CODE YOUR AI GIVES YOU</tspan></text>
    </g>
    <g>
      <rect class="st6" x="154.1" y="657.9" width="384" height="38.4" rx="7.7" ry="7.7"/>
      <g class="st10">
        <text class="st12" transform="translate(184.4 689.4)"><tspan x="0" y="0">Create Interactive SVG</tspan></text>
      </g>
    </g>
  </g>
</svg>