<?xml version="1.0" encoding="UTF-8"?>
<svg id="Layer_1" xmlns="http://www.w3.org/2000/svg" version="1.1" viewBox="0 0 688 979.5">
  <!-- Generator: Adobe Illustrator 30.0.0, SVG Export Plug-In . SVG Version: 2.1.1 Build 123)  -->
  <defs>
    <style>
      .st0, .st1, .st2, .st3 {
        fill: none;
      }

      .st0, .st3 {
        stroke: #ccc;
      }

      .st4 {
        stroke-width: 1px;
      }

      .st4, .st5, .st6 {
        fill: #fff;
      }

      .st4, .st5, .st6, .st1, .st2 {
        stroke: #999;
      }

      .st5, .st3 {
        stroke-width: 1.4px;
      }

      .st6 {
        stroke-dasharray: 4 4;
      }

      .st1, .st7 {
        stroke-width: 1.5px;
      }

      .st2 {
        stroke-width: 2px;
      }

      .st8 {
        fill: #e0e0e0;
        stroke-width: 2.6px;
      }

      .st8, .st7, .st9 {
        stroke: #666;
      }

      .st10 {
        fill: #333;
        font-size: 14px;
      }

      .st10, .st11 {
        font-family: Arial-BoldMT, Arial;
        font-weight: 700;
        isolation: isolate;
      }

      .st11 {
        fill: #666;
        font-size: 30px;
      }

      .st7, .st9 {
        fill: #f5f5f5;
      }

      .st9 {
        stroke-width: 1.4px;
      }
    </style>
  </defs>
  <rect class="st7" x="15.6" y="10" width="660" height="140" rx="2" ry="2"/>
  <text class="st10" transform="translate(35.6 32)"><tspan x="0" y="0">STEP 1: PICK YOUR SVG</tspan></text>
  <rect class="st6" x="35.6" y="45" width="620" height="90" rx="4" ry="4"/>
  <circle class="st2" cx="345.6" cy="90" r="20"/>
  <path class="st2" d="M345.6,80v20M335.6,90h20"/>
  <rect class="st7" x="15.6" y="170" width="660" height="200" rx="2" ry="2"/>
  <text class="st10" transform="translate(35.6 192)"><tspan x="0" y="0">STEP 2: DESCRIBE YOUR INTENTION</tspan></text>
  <rect class="st5" x="35.6" y="205" width="620" height="135" rx="2.9" ry="2.9"/>
  <line class="st3" x1="56.6" y1="215" x2="624.1" y2="215"/>
  <line class="st3" x1="56.6" y1="225" x2="561" y2="225"/>
  <line class="st3" x1="56.6" y1="235" x2="603.1" y2="235"/>
  <rect class="st7" x="15.6" y="390" width="660" height="120" rx="2" ry="2"/>
  <rect class="st9" x="15.6" y="530" width="660" height="131" rx="1.8" ry="1.8"/>
  <text class="st10" transform="translate(35.6 552)"><tspan x="0" y="0">STEP 4: CHOOSE YOUR AI</tspan></text>
  <rect class="st6" x="113.1" y="582.5" width="55" height="55" rx="4" ry="4"/>
  <circle class="st1" cx="140.6" cy="610" r="15"/>
  <rect class="st6" x="298.1" y="582.5" width="55" height="55" rx="4" ry="4"/>
  <circle class="st1" cx="325.6" cy="610" r="15"/>
  <rect class="st6" x="483.1" y="582.5" width="55" height="55" rx="4" ry="4"/>
  <circle class="st1" cx="510.6" cy="610" r="15"/>
  <rect class="st7" x="15.6" y="680" width="660" height="140" rx="2" ry="2"/>
  <rect class="st4" x="35.6" y="715" width="620" height="78" rx="2" ry="2"/>
  <line class="st0" x1="45.6" y1="725" x2="245.6" y2="725"/>
  <line class="st0" x1="45.6" y1="735" x2="195.6" y2="735"/>
  <rect class="st7" x="15.6" y="840" width="660" height="120" rx="2" ry="2"/>
  <rect class="st8" x="154.1" y="890" width="384" height="38.4" rx="7.7" ry="7.7"/>
  <rect class="st8" x="154.1" y="448.3" width="384" height="38.4" rx="7.7" ry="7.7"/>
  <text class="st11" transform="translate(184.4 921.5)"><tspan x="0" y="0">Create Interactive SVG</tspan></text>
  <text class="st10" transform="translate(269.5 770.2)"><tspan x="0" y="0">PASTE CODE FROM AI</tspan></text>
  <text class="st11" transform="translate(235.2 478.2)"><tspan x="0" y="0">Generate Prompt</tspan></text>
</svg>